<svg width="52" height="52" viewBox="0 0 52 52" fill="none" xmlns="http://www.w3.org/2000/svg">
<path d="M39.8695 10.3377C40.5003 10.9187 41.0979 11.5163 41.6624 12.1305L48.4602 13.1016C49.5678 15.0252 50.4215 17.0841 51 19.2271L46.8665 24.7301C46.8665 24.7301 46.9412 26.4233 46.8665 27.2699L51 32.7729C50.4242 34.9168 49.5703 36.9761 48.4602 38.8984L41.6624 39.8695C41.6624 39.8695 40.492 41.0896 39.8695 41.6624L38.8984 48.4602C36.9748 49.5678 34.9159 50.4215 32.7729 51L27.2699 46.8665C26.425 46.9413 25.575 46.9413 24.7301 46.8665L19.2271 51C17.0832 50.4242 15.0239 49.5703 13.1016 48.4602L12.1305 41.6624C11.5163 41.0813 10.9187 40.4837 10.3377 39.8695L3.53984 38.8984C2.43223 36.9748 1.57851 34.9159 1 32.7729L5.13347 27.2699C5.13347 27.2699 5.05877 25.5767 5.13347 24.7301L1 19.2271C1.57583 17.0832 2.42969 15.0239 3.53984 13.1016L10.3377 12.1305C10.9187 11.5163 11.5163 10.9187 12.1305 10.3377L13.1016 3.53984C15.0252 2.43223 17.0841 1.57851 19.2271 1L24.7301 5.13347C25.575 5.05875 26.425 5.05875 27.2699 5.13347L32.7729 1C34.9168 1.57583 36.9761 2.42969 38.8984 3.53984L39.8695 10.3377Z" stroke="#455A64" stroke-linecap="round" stroke-linejoin="round"/>
<path d="M25.997 44.0257C35.9542 44.0257 44.0262 35.9537 44.0262 25.9965C44.0262 16.0392 35.9542 7.96729 25.997 7.96729C16.0397 7.96729 7.96777 16.0392 7.96777 25.9965C7.96777 35.9537 16.0397 44.0257 25.997 44.0257Z" stroke="#455A64" stroke-linecap="round" stroke-linejoin="round"/>
<path d="M29.2575 20.4911L31.4009 13.4285L28.8678 12.7466L25.9938 16.01L23.6556 13.4285L20.2944 14.5001L22.8762 20.4911M29.2575 20.4911C33.9306 24.0078 35.363 26.4927 35.2793 31.2665C35.2692 31.8382 35.1837 32.9214 34.9412 33.4392C32.7224 38.1785 30.6625 39.2016 25.9451 39.2435C21.1104 39.2864 18.3065 36.8953 17.0363 32.5057C16.9647 32.2583 16.9199 32.0012 16.9005 31.7443C16.4829 26.2388 18.3613 24.1231 22.8762 20.4911M29.2575 20.4911H22.8762" stroke="#00EE57"/>
<path d="M26.1325 23.4004V34.054M29.0008 26.6784C29.0008 26.4094 28.9478 26.143 28.8449 25.8944C28.7419 25.6458 28.591 25.42 28.4007 25.2297C28.2105 25.0395 27.9846 24.8886 27.7361 24.7856C27.4875 24.6826 27.2211 24.6297 26.952 24.6297H25.1081C24.5648 24.6297 24.0437 24.8455 23.6594 25.2297C23.2752 25.6139 23.0594 26.1351 23.0594 26.6784C23.0594 27.2218 23.2752 27.7429 23.6594 28.1271C24.0437 28.5113 24.5648 28.7272 25.1081 28.7272H27.3618C27.9052 28.7272 28.4263 28.943 28.8105 29.3273C29.1947 29.7115 29.4106 30.2326 29.4106 30.776C29.4106 31.3193 29.1947 31.8404 28.8105 32.2247C28.4263 32.6089 27.9052 32.8247 27.3618 32.8247H24.9033C24.3599 32.8247 23.8388 32.6089 23.4546 32.2247C23.0703 31.8404 22.8545 31.3193 22.8545 30.776" stroke="#00EE57" stroke-linecap="round" stroke-linejoin="round"/>
</svg>
