<svg width="24" height="24" viewBox="0 0 24 24" fill="none" xmlns="http://www.w3.org/2000/svg">
<path d="M0.827637 21.0904C1.22484 20.4023 1.79618 19.8309 2.48425 19.4336C3.17231 19.0363 3.95283 18.8271 4.74736 18.8271C5.54188 18.8271 6.32241 19.0363 7.01047 19.4336C7.69853 19.8309 8.26988 20.4023 8.66708 21.0904" stroke="white" stroke-linecap="round" stroke-linejoin="round"/>
<path d="M4.74734 18.8267C6.17566 18.8267 7.33355 17.6688 7.33355 16.2405C7.33355 14.8122 6.17566 13.6543 4.74734 13.6543C3.31902 13.6543 2.16113 14.8122 2.16113 16.2405C2.16113 17.6688 3.31902 18.8267 4.74734 18.8267Z" stroke="#00EE57" stroke-miterlimit="10"/>
<path d="M15.3104 21.0904C15.7076 20.4023 16.279 19.8309 16.967 19.4336C17.6551 19.0363 18.4356 18.8271 19.2301 18.8271C20.0247 18.8271 20.8052 19.0363 21.4933 19.4336C22.1813 19.8309 22.7527 20.4023 23.1499 21.0904" stroke="white" stroke-linecap="round" stroke-linejoin="round"/>
<path d="M19.23 18.8267C20.6583 18.8267 21.8162 17.6688 21.8162 16.2405C21.8162 14.8122 20.6583 13.6543 19.23 13.6543C17.8017 13.6543 16.6438 14.8122 16.6438 16.2405C16.6438 17.6688 17.8017 18.8267 19.23 18.8267Z" stroke="#00EE57" stroke-miterlimit="10"/>
<path d="M11.938 11.3271V13.9663" stroke="white" stroke-linecap="round"/>
<path d="M12.0931 14.1221L13.9593 15.9882" stroke="white" stroke-linecap="round"/>
<path d="M11.7859 14.1221L9.91973 15.9882" stroke="white" stroke-linecap="round"/>
<path d="M8.06897 10.7457C8.46617 10.0576 9.03752 9.48617 9.72558 9.08888C10.4136 8.69158 11.1942 8.48242 11.9887 8.48242C12.7832 8.48242 13.5637 8.69158 14.2518 9.08888C14.9399 9.48617 15.5112 10.0576 15.9084 10.7457" stroke="white" stroke-linecap="round" stroke-linejoin="round"/>
<path d="M11.9888 8.48296C13.4171 8.48296 14.575 7.32508 14.575 5.89675C14.575 4.46843 13.4171 3.31055 11.9888 3.31055C10.5605 3.31055 9.40259 4.46843 9.40259 5.89675C9.40259 7.32508 10.5605 8.48296 11.9888 8.48296Z" stroke="#00EE57" stroke-miterlimit="10"/>
</svg>
