<svg width="100" height="100" viewBox="0 0 100 100" fill="none" xmlns="http://www.w3.org/2000/svg">
<path d="M3.44849 87.8767C5.10348 85.0095 7.4841 82.6286 10.351 80.9732C13.2179 79.3178 16.4701 78.4463 19.7807 78.4463C23.0912 78.4463 26.3434 79.3178 29.2103 80.9732C32.0772 82.6286 34.4578 85.0095 36.1128 87.8767" stroke="#FFC107" stroke-width="2" stroke-linecap="round" stroke-linejoin="round"/>
<path d="M19.7806 78.4443C25.732 78.4443 30.5565 73.6198 30.5565 67.6684C30.5565 61.7171 25.732 56.8926 19.7806 56.8926C13.8293 56.8926 9.00476 61.7171 9.00476 67.6684C9.00476 73.6198 13.8293 78.4443 19.7806 78.4443Z" stroke="#FFC107" stroke-width="2" stroke-miterlimit="10"/>
<path d="M63.7935 87.8767C65.4485 85.0095 67.8291 82.6286 70.696 80.9732C73.5629 79.3178 76.8151 78.4463 80.1256 78.4463C83.4361 78.4463 86.6883 79.3178 89.5553 80.9732C92.4222 82.6286 94.8028 85.0095 96.4578 87.8767" stroke="#FFC107" stroke-width="2" stroke-linecap="round" stroke-linejoin="round"/>
<path d="M80.125 78.4443C86.0763 78.4443 90.9008 73.6198 90.9008 67.6684C90.9008 61.7171 86.0763 56.8926 80.125 56.8926C74.1736 56.8926 69.3491 61.7171 69.3491 67.6684C69.3491 73.6198 74.1736 78.4443 80.125 78.4443Z" stroke="#FFC107" stroke-width="2" stroke-miterlimit="10"/>
<path d="M49.7416 47.1963V58.1927" stroke="#FFC107" stroke-width="2" stroke-linecap="round"/>
<path d="M50.3881 58.8418L58.1637 66.6175" stroke="#FFC107" stroke-width="2" stroke-linecap="round"/>
<path d="M49.1079 58.8418L41.3322 66.6175" stroke="#FFC107" stroke-width="2" stroke-linecap="round"/>
<path d="M33.6207 44.7741C35.2757 41.907 37.6563 39.526 40.5233 37.8706C43.3902 36.2153 46.6424 35.3438 49.9529 35.3438C53.2634 35.3438 56.5156 36.2153 59.3825 37.8706C62.2494 39.526 64.6301 41.907 66.2851 44.7741" stroke="#FFC107" stroke-width="2" stroke-linecap="round" stroke-linejoin="round"/>
<path d="M49.9534 35.3457C55.9047 35.3457 60.7292 30.5212 60.7292 24.5698C60.7292 18.6185 55.9047 13.7939 49.9534 13.7939C44.002 13.7939 39.1775 18.6185 39.1775 24.5698C39.1775 30.5212 44.002 35.3457 49.9534 35.3457Z" stroke="#FFC107" stroke-width="2" stroke-miterlimit="10"/>
</svg>
