<svg width="100" height="101" viewBox="0 0 100 101" fill="none" xmlns="http://www.w3.org/2000/svg">
<path d="M50.5194 53.6152V99.0896" stroke="#03002B" stroke-width="2" stroke-linecap="round"/>
<path d="M14.8511 62.0205V87.9905L50.5194 98.9819L85.2179 87.9905V62.378" stroke="#03002B" stroke-width="2" stroke-linecap="round"/>
<path d="M50.627 53.6148L14.9587 45.9639L9.35522 60.1881L43.9459 70.6407L50.627 53.6148Z" stroke="#03002B" stroke-width="2" stroke-linecap="round"/>
<path d="M56.2307 70.5334L50.6272 53.6152L85.5412 44.5635L91.7912 60.5118L56.2307 70.5334Z" stroke="#03002B" stroke-width="2" stroke-linecap="round"/>
<path d="M15.2821 46.0717L40.7133 39.7139" stroke="#03002B" stroke-width="2" stroke-linecap="round"/>
<path d="M62.1572 40.0381L85.6487 44.564" stroke="#03002B" stroke-width="2" stroke-linecap="round"/>
<circle cx="51.4892" cy="36.0501" r="10.3147" stroke="#03002B" stroke-width="2"/>
<path d="M48.9838 35.9519H52.7419C53.2956 35.9519 53.8267 36.1699 54.2182 36.5579C54.6098 36.9459 54.8298 37.4721 54.8298 38.0208C54.8298 38.5696 54.6098 39.0958 54.2182 39.4838C53.8267 39.8718 53.2956 40.0898 52.7419 40.0898H48.9838M48.9838 40.0898V32.2277M48.9838 40.0898H48.1487M48.9838 32.2277H52.1156C52.6139 32.2277 53.0919 32.4239 53.4443 32.7731C53.7966 33.1223 53.9946 33.5959 53.9946 34.0898C53.9946 34.5836 53.7966 35.0573 53.4443 35.4065C53.0919 35.7557 52.6139 35.9519 52.1156 35.9519M48.9838 32.2277H48.1487M50.2365 32.2277V30.9863M51.9068 32.2277V30.9863M50.2365 41.3312V40.0898M51.9068 41.3312V40.0898" stroke="#03002B" stroke-width="2" stroke-linecap="round" stroke-linejoin="round"/>
<circle cx="30.0899" cy="22.5205" r="7.95802" stroke="#03002B" stroke-width="2"/>
<path d="M30.0507 18.5098L27.957 26.5293H33.7583M26.5919 23.2874L31.3695 21.7517" stroke="#03002B" stroke-width="2" stroke-linecap="round"/>
<circle cx="66.9896" cy="13.8835" r="11.8835" stroke="#03002B" stroke-width="2"/>
<path d="M67.1122 8.11719V19.8964M67.1122 8.11719L71.7748 14.0068M67.1122 8.11719L62.4496 14.0068M67.1122 19.8964L71.7748 14.0068M67.1122 19.8964L62.4496 14.0068M71.7748 14.0068L67.1122 16.1102L62.4496 14.0068" stroke="#03002B" stroke-width="2" stroke-linecap="round" stroke-linejoin="round"/>
</svg>
