<svg width="24" height="24" viewBox="0 0 24 24" fill="none" xmlns="http://www.w3.org/2000/svg">
<path d="M12.0834 11.4238V22.6345" stroke="white" stroke-linecap="round"/>
<path d="M3.29028 13.4951V19.1591C3.29028 19.598 3.5764 19.9856 3.99579 20.1148L11.7849 22.5151C11.9793 22.575 12.1874 22.5742 12.3813 22.5127L19.9395 20.1185C20.3551 19.9869 20.6375 19.6011 20.6375 19.1652V13.5832" stroke="white" stroke-linecap="round"/>
<path d="M10.9587 11.1763L4.1461 9.71499C3.6677 9.61237 3.1853 9.87099 3.00597 10.3262L2.33323 12.0339C2.119 12.5778 2.41485 13.1886 2.97438 13.3577L9.57979 15.3537C10.0786 15.5045 10.6096 15.2469 10.7999 14.7618L11.6799 12.5194C11.9052 11.9451 11.5619 11.3057 10.9587 11.1763Z" stroke="white" stroke-linecap="round"/>
<path d="M13.1909 14.6873L12.4459 12.4382C12.2641 11.8892 12.5844 11.3009 13.1442 11.1557L19.8588 9.41494C20.3486 9.28794 20.8561 9.5469 21.0408 10.0181L21.8552 12.0962C22.0709 12.6467 21.7645 13.2632 21.1954 13.4235L14.4114 15.3354C13.8967 15.4804 13.359 15.1949 13.1909 14.6873Z" stroke="white" stroke-linecap="round"/>
<path d="M3.39661 9.56346L9.66606 7.99609" stroke="white" stroke-linecap="round"/>
<path d="M14.9525 8.0752L20.7438 9.19094" stroke="white" stroke-linecap="round"/>
<circle cx="12.3225" cy="7.09308" r="2.53937" stroke="white" stroke-width="0.5"/>
<path d="M11.7048 7.06886H12.6313C12.7678 7.06886 12.8987 7.1226 12.9952 7.21826C13.0917 7.31391 13.146 7.44364 13.146 7.57892C13.146 7.7142 13.0917 7.84393 12.9952 7.93958C12.8987 8.03524 12.7678 8.08898 12.6313 8.08898H11.7048M11.7048 8.08898V6.15076M11.7048 8.08898H11.4989M11.7048 6.15076H12.4768C12.5997 6.15076 12.7175 6.19912 12.8044 6.28521C12.8913 6.3713 12.9401 6.48806 12.9401 6.60981C12.9401 6.73156 12.8913 6.84832 12.8044 6.93441C12.7175 7.0205 12.5997 7.06886 12.4768 7.06886M11.7048 6.15076H11.4989M12.0136 6.15076V5.84473M12.4254 6.15076V5.84473M12.0136 8.39501V8.08898M12.4254 8.39501V8.08898" stroke="#00EE57" stroke-width="0.5" stroke-linecap="round" stroke-linejoin="round"/>
<circle cx="7.04713" cy="3.75819" r="1.95839" stroke="white" stroke-width="0.5"/>
<path d="M7.03749 2.76953L6.52133 4.74656H7.95152M6.18481 3.94734L7.36262 3.56876" stroke="#00EE57" stroke-width="0.5" stroke-linecap="round"/>
</svg>
