<svg width="55" height="63" viewBox="0 0 55 63" fill="none" xmlns="http://www.w3.org/2000/svg">
<path d="M27.7157 33.5088V62.4696" stroke="#455A64" stroke-linecap="round"/>
<path d="M5 38.8613V55.4005L27.7157 62.4005L49.8137 55.4005V39.089" stroke="#455A64" stroke-linecap="round"/>
<path d="M27.7843 33.5083L5.06863 28.6357L1.5 37.6946L23.5294 44.3514L27.7843 33.5083Z" stroke="#455A64" stroke-linecap="round"/>
<path d="M31.3529 44.2834L27.7843 33.5088L50.0196 27.7441L54 37.901L31.3529 44.2834Z" stroke="#455A64" stroke-linecap="round"/>
<path d="M5.27451 28.7043L21.4706 24.6553" stroke="#455A64" stroke-linecap="round"/>
<path d="M35.1275 24.8613L50.0883 27.7437" stroke="#455A64" stroke-linecap="round"/>
<circle cx="28.3333" cy="22.3221" r="6.70588" stroke="#455A64"/>
<path d="M26.7377 22.259H29.1311C29.4838 22.259 29.822 22.3979 30.0713 22.645C30.3207 22.8921 30.4608 23.2272 30.4608 23.5767C30.4608 23.9261 30.3207 24.2613 30.0713 24.5084C29.822 24.7555 29.4838 24.8943 29.1311 24.8943H26.7377M26.7377 24.8943V19.8873M26.7377 24.8943H26.2059M26.7377 19.8873H28.7322C29.0496 19.8873 29.354 20.0122 29.5784 20.2346C29.8028 20.457 29.9289 20.7586 29.9289 21.0732C29.9289 21.3877 29.8028 21.6893 29.5784 21.9117C29.354 22.1341 29.0496 22.259 28.7322 22.259M26.7377 19.8873H26.2059M27.5355 19.8873V19.0967M28.5993 19.8873V19.0967M27.5355 25.6849V24.8943M28.5993 25.6849V24.8943" stroke="#00EE57" stroke-linecap="round" stroke-linejoin="round"/>
<circle cx="14.705" cy="13.705" r="5.205" stroke="#455A64"/>
<path d="M14.6801 11.1514L13.3467 16.2587H17.0413M12.4773 14.194L15.52 13.216" stroke="#00EE57" stroke-linecap="round"/>
<circle cx="38.205" cy="8.205" r="7.705" stroke="#455A64"/>
<path d="M38.283 4.53223V12.0339M38.283 4.53223L41.2525 8.28308M38.283 4.53223L35.3136 8.28308M38.283 12.0339L41.2525 8.28308M38.283 12.0339L35.3136 8.28308M41.2525 8.28308L38.283 9.62268L35.3136 8.28308" stroke="#FF0A32" stroke-linecap="round" stroke-linejoin="round"/>
</svg>
