<svg width="118" height="115" viewBox="0 0 118 115" fill="none" xmlns="http://www.w3.org/2000/svg">
<path d="M48.9711 8.59033L53.9087 16.8466" stroke="white" stroke-opacity="0.3" stroke-width="8" stroke-linecap="round" stroke-linejoin="round"/>
<path d="M86.826 71.8887L91.7637 80.145" stroke="white" stroke-opacity="0.3" stroke-width="8" stroke-linecap="round" stroke-linejoin="round"/>
<path d="M81.4027 19.0856C80.322 17.2786 78.896 15.7021 77.206 14.4461C75.5161 13.1902 73.5953 12.2794 71.5533 11.7658C69.5114 11.2522 67.3883 11.1458 65.3052 11.4527C63.2222 11.7596 61.22 12.4738 59.4129 13.5545L47.0285 20.9609C43.379 23.1435 40.746 26.6864 39.7087 30.8103C38.6714 34.9342 39.3148 39.3012 41.4974 42.9507C43.6799 46.6002 47.2228 49.2332 51.3467 50.2705C55.4706 51.3078 59.8377 50.6644 63.4872 48.4818L78.6237 39.4296C82.2732 37.247 86.6402 36.6036 90.7641 37.6409C94.888 38.6782 98.4309 41.3112 100.614 44.9607C102.796 48.6102 103.439 52.9772 102.402 57.1011C101.365 61.225 98.7319 64.7679 95.0824 66.9505L78.5698 76.8257C74.9203 79.0083 70.5533 79.6517 66.4294 78.6144C62.3055 77.5771 58.7626 74.9441 56.58 71.2946" stroke="white" stroke-opacity="0.3" stroke-width="8" stroke-linecap="round" stroke-linejoin="round"/>
</svg>
