<svg width="59" height="40" viewBox="0 0 59 40" fill="none" xmlns="http://www.w3.org/2000/svg">
<path d="M36.8661 1H1V29.2234H35.3637" stroke="#455A64"/>
<path d="M49.2583 17.1043V1H39.3228" stroke="#455A64"/>
<path d="M44.8255 16.2608V10.0676C41.9891 9.38867 41.091 8.47225 40.6766 5.9187H16.6021" stroke="#455A64"/>
<path d="M25 12V12.8571M25 17.1429V18M23.875 17.1429H25.5625C25.8111 17.1429 26.0496 17.03 26.2254 16.829C26.4012 16.6281 26.5 16.3556 26.5 16.0714C26.5 15.7873 26.4012 15.5147 26.2254 15.3138C26.0496 15.1129 25.8111 15 25.5625 15H24.4375C24.1889 15 23.9504 14.8871 23.7746 14.6862C23.5988 14.4853 23.5 14.2127 23.5 13.9286C23.5 13.6444 23.5988 13.3719 23.7746 13.171C23.9504 12.97 24.1889 12.8571 24.4375 12.8571H26.125" stroke="#455A64" stroke-linecap="round" stroke-linejoin="round"/>
<path d="M13.8291 5.9187H9.18884C8.46256 8.532 7.5103 9.42004 4.98535 10.1222V19.8394C7.98517 20.6893 9.68854 21.6618 9.96019 24.3158H36" stroke="#455A64"/>
<circle cx="25.02" cy="15.1357" r="5.28662" stroke="#455A64"/>
<circle cx="46.7013" cy="27.7013" r="11.2013" stroke="#00EE57"/>
<path d="M41.4142 31.9221C42.3938 30.8788 44.9654 28.6655 48.6195 28.6655V31.5221L53.3806 26.7611L48.6195 22V24.8566C45.4772 24.8566 41.4487 27.8591 41.0018 31.7328C40.9956 31.783 41.0055 31.8338 41.0302 31.8779C41.0548 31.9221 41.0928 31.9572 41.1388 31.9783C41.1847 31.9994 41.2362 32.0053 41.2857 31.9952C41.3352 31.9851 41.3802 31.9595 41.4142 31.9221Z" stroke="#00EE57" stroke-linecap="round" stroke-linejoin="round"/>
</svg>
