<svg width="101" height="100" viewBox="0 0 101 100" fill="none" xmlns="http://www.w3.org/2000/svg">
<rect x="26.4642" y="5.96529" width="74.1866" height="93.9262" rx="5" fill="#03002B"/>
<path d="M74.4854 1.68035L92.3398 21.7901C93.1522 22.7051 93.6009 23.8862 93.6009 25.1098V88.3839C93.6009 91.1454 91.3623 93.3839 88.6009 93.3839H25.3904C22.629 93.3839 20.3904 91.1454 20.3904 88.384V5C20.3904 2.23858 22.629 0 25.3904 0H70.7464C72.1756 0 73.5365 0.611603 74.4854 1.68035Z" fill="#00EE57"/>
<path d="M93.6009 23.2104L72.9935 0V18.2104C72.9935 20.9718 75.2321 23.2104 77.9935 23.2104H93.6009Z" fill="#48F788" fill-opacity="0.53"/>
<rect x="27.5488" y="18.5466" width="34.0564" height="1.95228" fill="#35FB7D"/>
<rect x="27.5488" y="24.4035" width="34.0564" height="1.95228" fill="#35FB7D"/>
<rect x="27.5488" y="30.2603" width="34.0564" height="1.95228" fill="#35FB7D"/>
<rect x="27.5488" y="46.7462" width="59.0022" height="1.95228" fill="#35FB7D"/>
<rect x="27.5488" y="52.603" width="59.0022" height="1.95228" fill="#35FB7D"/>
<rect x="27.5488" y="58.4599" width="59.0022" height="1.95228" fill="#35FB7D"/>
<rect x="27.5488" y="70.8243" width="59.0022" height="1.95228" fill="#35FB7D"/>
<rect x="27.5488" y="76.6811" width="59.0022" height="1.95228" fill="#35FB7D"/>
<rect x="27.5488" y="82.538" width="59.0022" height="1.95228" fill="#35FB7D"/>
<rect y="40.0217" width="62.4729" height="10.4121" rx="5" fill="#FF0A32"/>
<path d="M6.94142 100L3.4707 50.4338H59.1106L55.5314 100H6.94142Z" fill="#FFDDE3"/>
<path d="M15.6182 31.6811V40.0217H22.7766V32.8633H40.1302V40.0217H46.7462V31.6811C46.7462 28.9197 44.5076 26.6811 41.7462 26.6811H20.6182C17.8568 26.6811 15.6182 28.9197 15.6182 31.6811Z" fill="#FF0A32"/>
<rect x="13.8829" y="58.4599" width="6.94143" height="33.1887" fill="#FF0A32"/>
<rect x="27.5488" y="58.4599" width="6.94143" height="33.1887" fill="#FF0A32"/>
<rect x="41.2148" y="58.4599" width="6.94143" height="33.1887" fill="#FF0A32"/>
</svg>
