<svg width="47" height="51" viewBox="0 0 47 51" fill="none" xmlns="http://www.w3.org/2000/svg">
<path d="M38.6504 16.7607C30.6775 17.4684 32.7472 27.2995 26.5381 28.8731" stroke="#00EE57" stroke-linecap="round" stroke-linejoin="round"/>
<path d="M30.4149 26.0364C25.57 17.9615 32.0299 9.88661 45.7572 10.6941C46.5647 24.4214 38.4898 30.8813 30.4149 26.0364Z" stroke="#00EE57" stroke-linecap="round" stroke-linejoin="round"/>
<path d="M17.1726 19.5093C23.3355 20.0563 21.7356 27.6555 26.5352 28.8718" stroke="#00EE57" stroke-linecap="round" stroke-linejoin="round"/>
<path d="M23.54 26.6798C27.285 20.4381 22.2916 14.1964 11.6807 14.8206C11.0566 25.4315 17.2983 30.4249 23.54 26.6798Z" stroke="#00EE57" stroke-linecap="round" stroke-linejoin="round"/>
<path d="M25.8096 4.43652V11.2621M27.6511 6.53671C27.6511 6.36433 27.6171 6.19364 27.551 6.03439C27.4849 5.87514 27.388 5.73044 27.2659 5.60855C27.1437 5.48666 26.9987 5.38997 26.8391 5.32401C26.6796 5.25804 26.5085 5.22409 26.3358 5.22409H25.152C24.8031 5.22409 24.4685 5.36238 24.2219 5.60855C23.9752 5.85471 23.8366 6.18858 23.8366 6.53671C23.8366 6.88483 23.9752 7.2187 24.2219 7.46486C24.4685 7.71103 24.8031 7.84932 25.152 7.84932H26.5988C26.9477 7.84932 27.2823 7.98761 27.5289 8.23378C27.7756 8.47994 27.9142 8.81381 27.9142 9.16194C27.9142 9.51006 27.7756 9.84393 27.5289 10.0901C27.2823 10.3363 26.9477 10.4745 26.5988 10.4745H25.0204C24.6716 10.4745 24.337 10.3363 24.0903 10.0901C23.8437 9.84393 23.7051 9.51006 23.7051 9.16194" stroke="#455A64" stroke-linecap="round" stroke-linejoin="round"/>
<circle cx="25.8131" cy="7.79255" r="7.29255" stroke="#00EE57"/>
<path d="M26.5303 14.8936C24.9633 21.0132 28.6595 23.9361 26.5303 29.2553" stroke="#00EE57"/>
<path d="M1 31.915C2.56564 32.0315 5.90767 31.9636 10.5745 31.915V45.7448H1" stroke="#455A64"/>
<path d="M10.5742 32.9785H19.517C19.7745 32.9785 20.022 33.0778 20.2081 33.2558L27.6424 40.3648C28.2049 40.9026 28.2271 41.7938 27.6921 42.359V42.359C26.4612 43.6593 24.4267 43.7654 23.0672 42.6002L19.4661 39.5135" stroke="#455A64"/>
<path d="M26.5328 29.2554C25.2201 32.1844 25.5063 33.975 26.5328 37.2341" stroke="#00EE57" stroke-linecap="round"/>
<path d="M10.5742 45.2283H14.2375L23.224 49.5504C23.8101 49.8323 24.4968 49.8116 25.0649 49.4948L45.2998 38.2108C45.514 38.0913 45.5988 37.8261 45.4935 37.6046V37.6046C44.789 36.1214 43.196 35.2748 41.5724 35.5209L25.2273 37.9984" stroke="#455A64"/>
<path d="M6.31934 31.915V45.7448" stroke="#455A64"/>
</svg>
