<svg width="36" height="51" viewBox="0 0 36 51" fill="none" xmlns="http://www.w3.org/2000/svg">
<path d="M27.8739 6.75488C20.3793 7.42005 22.3249 16.6613 16.4883 18.1405" stroke="#00EE57" stroke-linecap="round" stroke-linejoin="round"/>
<path d="M20.1324 15.4743C15.5782 7.88393 21.6505 0.293525 34.5542 1.05256C35.3132 13.9562 27.7228 20.0286 20.1324 15.4743Z" stroke="#00EE57" stroke-linecap="round" stroke-linejoin="round"/>
<path d="M7.68551 9.33887C13.4786 9.85302 11.9748 16.9963 16.4863 18.1397" stroke="#00EE57" stroke-linecap="round" stroke-linejoin="round"/>
<path d="M13.6708 16.079C17.1911 10.2117 12.4974 4.34454 2.52311 4.93126C1.93639 14.9055 7.8036 19.5993 13.6708 16.079Z" stroke="#00EE57" stroke-linecap="round" stroke-linejoin="round"/>
<path d="M16.3912 28.8213V40.4944M19.5405 32.413C19.5405 32.1182 19.4823 31.8263 19.3693 31.554C19.2563 31.2816 19.0906 31.0341 18.8817 30.8257C18.6728 30.6172 18.4248 30.4519 18.1519 30.3391C17.8789 30.2263 17.5864 30.1682 17.291 30.1682H15.2665C14.6698 30.1682 14.0977 30.4047 13.6758 30.8257C13.2539 31.2467 13.0169 31.8177 13.0169 32.413C13.0169 33.0084 13.2539 33.5794 13.6758 34.0004C14.0977 34.4214 14.6698 34.6579 15.2665 34.6579H17.7409C18.3375 34.6579 18.9097 34.8944 19.3316 35.3154C19.7534 35.7364 19.9904 36.3073 19.9904 36.9027C19.9904 37.4981 19.7534 38.0691 19.3316 38.49C18.9097 38.911 18.3375 39.1475 17.7409 39.1475H15.0415C14.4449 39.1475 13.8727 38.911 13.4509 38.49C13.029 38.0691 12.792 37.4981 12.792 36.9027" stroke="#455A64" stroke-linecap="round" stroke-linejoin="round"/>
<path d="M16.4883 18.1206L16.4883 24.5408" stroke="#00EE57"/>
<path d="M16.4883 44.5801V51.0003" stroke="#00EE57"/>
<path d="M0 34.5122H6.42023" stroke="#00EE57"/>
<path d="M26.5566 34.5122H32.9769" stroke="#00EE57"/>
<circle cx="16.3913" cy="34.5607" r="12.8268" stroke="#455A64"/>
</svg>
