<svg width="38" height="23" viewBox="0 0 38 23" fill="none" xmlns="http://www.w3.org/2000/svg">
<path d="M23.4374 5.0604C22.9065 5.95516 21.5961 5.90855 21.1301 4.97835L20.4244 3.5697C19.6868 2.09739 17.5855 2.09744 16.848 3.56978L16.2328 4.79804C15.7837 5.69469 14.5206 5.73966 14.0088 4.87722C13.3177 3.71253 11.527 4.29722 11.6563 5.64534L12.1573 10.8663C12.2557 11.8922 13.1175 12.6753 14.1481 12.6753H23.4065C24.4371 12.6753 25.2989 11.8922 25.3974 10.8663L25.878 5.85725C26.0122 4.45861 24.1543 3.85204 23.4374 5.0604Z" fill="url(#paint0_linear_231_5400)"/>
<path d="M11.7524 16.6269C10.6898 15.6058 10.504 13.9641 10.599 13.8751C10.599 13.8751 11.565 14.5938 13.1774 15.2308C14.5422 15.7698 14.3399 17.8261 14.3399 17.8261C14.3399 17.8261 12.815 17.648 11.7524 16.6261V16.6269Z" fill="url(#paint1_linear_231_5400)"/>
<path d="M14.335 17.8668C14.3194 17.8652 12.7837 17.6748 11.7236 16.6562C10.8278 15.7949 10.533 14.4722 10.5363 14.0008C10.5363 13.8928 10.5545 13.8623 10.571 13.8467L10.5966 13.8228L10.6247 13.8442C10.6346 13.8516 11.6055 14.5678 13.1932 15.1949C14.5703 15.7389 14.3838 17.8099 14.3813 17.8306L14.3772 17.8718L14.335 17.8668ZM11.7814 16.5985C12.7226 17.5025 14.0469 17.7424 14.3012 17.7803C14.3194 17.4869 14.3755 15.7479 13.161 15.2683C11.7566 14.7136 10.8311 14.089 10.6189 13.9398C10.5851 14.2167 10.8228 15.6771 11.7806 16.5976L11.7814 16.5985Z" fill="url(#paint2_linear_231_5400)"/>
<path d="M25.8016 16.7276C26.8642 15.7065 27.05 14.0648 26.955 13.9758C26.955 13.9758 25.9891 14.6945 24.3766 15.3315C23.0118 15.8705 23.2141 17.9268 23.2141 17.9268C23.2141 17.9268 24.7391 17.7487 25.8016 16.7268V16.7276Z" fill="url(#paint3_linear_231_5400)"/>
<path d="M23.1771 17.9716L23.1729 17.9304C23.1713 17.9098 22.9839 15.8387 24.361 15.2948C25.9495 14.6676 26.9205 13.9515 26.9295 13.944L26.9576 13.9226L26.9832 13.9465C26.9997 13.9622 27.0171 13.9927 27.0179 14.1006C27.0212 14.572 26.7264 15.8948 25.8306 16.756C24.7705 17.7755 23.234 17.965 23.2192 17.9667L23.1771 17.9716ZM26.9345 14.0405C26.7231 14.1896 25.7968 14.8143 24.3924 15.369C23.1779 15.8486 23.234 17.5867 23.2522 17.881C23.5065 17.8422 24.8316 17.6032 25.772 16.6991C26.7297 15.7786 26.9675 14.3182 26.9337 14.0413L26.9345 14.0405Z" fill="url(#paint4_linear_231_5400)"/>
<path d="M22.585 18.9189C22.0524 18.8587 21.543 18.9197 21.1071 19.0227C21.4407 18.8076 21.7808 18.5299 22.0673 18.178C22.9937 17.0382 22.9705 15.3874 22.8657 15.3099C22.8657 15.3099 21.998 16.1382 20.4772 16.9615C19.1908 17.6587 19.6499 19.6746 19.6499 19.6746C19.6499 19.6746 19.725 19.6565 19.8513 19.6161C20.1122 19.9688 21.1319 21.2083 22.3513 20.8696C24.0257 20.4056 25.2427 20.3932 25.2427 20.3932C25.2608 20.2672 24.0703 19.0862 22.585 18.9189Z" fill="url(#paint5_linear_231_5400)"/>
<path d="M26.1092 17.4734C24.6231 17.3061 23.3104 18.0792 23.3104 18.0792C23.3104 18.0792 24.4588 19.8181 25.8756 19.425C27.5499 18.961 28.7669 18.9486 28.7669 18.9486C28.7851 18.8225 27.5945 17.6415 26.1092 17.4742V17.4734Z" fill="url(#paint6_linear_231_5400)"/>
<path d="M29.4052 16.3667C28.8834 16.3082 28.3872 16.3939 27.9876 16.5126C28.3014 16.2917 28.649 15.9777 28.8942 15.5615C29.4556 14.6105 29.2228 13.3652 29.1328 13.3174C29.1328 13.3174 28.5755 14.0278 27.5187 14.7975C26.7632 15.3472 27.0828 16.4862 27.2016 16.829C27.1216 16.8711 27.0778 16.8974 27.0778 16.8974C27.0778 16.8974 28.0264 18.3908 29.2054 18.0471C30.5983 17.6416 31.6105 17.6268 31.6105 17.6268C31.6262 17.518 30.6412 16.5052 29.4069 16.3667H29.4052Z" fill="url(#paint7_linear_231_5400)"/>
<path d="M32.1748 14.935C31.6678 14.8781 31.1865 14.9671 30.8059 15.0841C31.0552 14.766 31.3186 14.3301 31.4301 13.815C31.6687 12.7139 31.0371 11.5675 30.933 11.5486C30.933 11.5486 30.6193 12.4131 29.8366 13.4894C29.3602 14.1438 29.7854 14.9778 30.062 15.3948C30.0224 15.4163 30.0009 15.4303 30.0009 15.4303C30.0009 15.4303 30.886 16.8247 31.9874 16.5041C33.2877 16.1259 34.2322 16.1118 34.2322 16.1118C34.2471 16.0105 33.3273 15.0652 32.1748 14.935Z" fill="url(#paint8_linear_231_5400)"/>
<path d="M33.8683 13.5857C33.3473 13.5816 32.8784 13.7522 32.5514 13.9138C32.7488 13.6072 32.9882 13.13 33.0187 12.5811C33.0707 11.6284 32.3871 10.7491 32.298 10.7466C32.298 10.7466 32.1518 11.5097 31.6416 12.5102C31.3064 13.1671 31.8777 13.8651 32.151 14.1453C32.1089 14.1742 32.0841 14.1923 32.0841 14.1923C32.0841 14.1923 32.9593 15.2892 33.8576 14.9233C34.9185 14.4907 35.7127 14.3959 35.7127 14.3959C35.7152 14.3085 34.8533 13.5932 33.87 13.5841L33.8683 13.5857Z" fill="url(#paint9_linear_231_5400)"/>
<path d="M35.0759 12.0382C34.711 12.0967 34.3948 12.2533 34.1553 12.409C34.2751 12.1478 34.3849 11.805 34.3766 11.43C34.3593 10.6215 33.7244 9.92014 33.6484 9.92261C33.6484 9.92261 33.5741 10.577 33.2075 11.4539C32.9788 12.0011 33.4445 12.5294 33.7045 12.77C33.6864 12.7882 33.6765 12.7989 33.6765 12.7989C33.6765 12.7989 34.5731 13.5909 35.2675 13.1574C36.0881 12.6456 36.7371 12.4535 36.7371 12.4535C36.7263 12.3802 35.8982 11.9055 35.0759 12.0374V12.0382Z" fill="url(#paint10_linear_231_5400)"/>
<path d="M34.9278 11.1567C34.9195 11.1657 34.9137 11.1715 34.9137 11.1715C34.9137 11.1715 35.6692 11.8976 36.2603 11.5234C36.958 11.0817 37.5095 10.9234 37.5095 10.9234C37.5004 10.8575 36.8011 10.4166 36.1035 10.5188C35.7204 10.5748 35.3992 10.7668 35.1878 10.9275C35.2877 10.696 35.3901 10.3523 35.3422 9.98802C35.2564 9.33778 34.6537 8.82846 34.5893 8.83752C34.5893 8.83752 34.5835 9.37157 34.3465 10.1108C34.1897 10.6004 34.6982 11.0034 34.9278 11.1567Z" fill="url(#paint11_linear_231_5400)"/>
<path d="M21.9269 20.9684C20.9138 20.9684 20.1055 20.0223 19.8356 19.6638C19.7266 19.6976 19.663 19.7132 19.6605 19.714L19.6192 19.7239L19.6102 19.6835C19.6052 19.6629 19.1585 17.6298 20.4572 16.926C21.9549 16.115 22.8284 15.2892 22.8367 15.281L22.8623 15.2571L22.8912 15.2777C22.9094 15.2909 22.93 15.3189 22.9449 15.426C23.0076 15.8933 22.8821 17.2408 22.1002 18.2026C21.8814 18.4721 21.6139 18.7193 21.3027 18.9402C21.7493 18.8545 22.182 18.8339 22.5898 18.88C23.8423 19.0209 24.9156 19.8855 25.2128 20.258C25.2805 20.3429 25.2871 20.3775 25.2838 20.3997L25.2789 20.4343H25.2434C25.231 20.4343 24.0116 20.4525 22.3628 20.9099C22.2142 20.9511 22.0689 20.97 21.9269 20.97V20.9684ZM19.8669 19.569L19.8851 19.5929C20.1617 19.9662 21.1565 21.1596 22.3405 20.8316C23.8019 20.4261 24.9297 20.3643 25.1873 20.3552C25.0452 20.1253 23.9257 19.1108 22.5808 18.9591C22.1201 18.9072 21.6272 18.9418 21.1177 19.0621L20.889 19.1157L21.0847 18.9896C21.4629 18.7457 21.7824 18.4638 22.035 18.1531C22.8697 17.1254 22.9217 15.6485 22.8532 15.3774C22.6617 15.5505 21.8212 16.2798 20.4977 16.9968C19.3526 17.6174 19.6275 19.3358 19.682 19.625C19.7158 19.616 19.7695 19.6003 19.838 19.5781L19.8669 19.569Z" fill="url(#paint12_linear_231_5400)"/>
<path d="M25.4578 19.5222C24.9913 19.5222 24.5067 19.3219 24.0344 18.9305C23.5712 18.5456 23.2781 18.1055 23.2748 18.1014L23.2517 18.0668L23.288 18.0453C23.3012 18.0379 24.6297 17.2674 26.1133 17.4347C27.3666 17.5756 28.4391 18.4401 28.7372 18.8134C28.8049 18.8983 28.8106 18.9329 28.8082 18.9552L28.8032 18.9898H28.7677C28.7553 18.9898 27.5359 19.0079 25.8871 19.4653C25.7459 19.5041 25.6031 19.5239 25.4578 19.5239V19.5222ZM23.3698 18.0931C23.5423 18.3354 24.6049 19.7357 25.8648 19.387C27.3262 18.9816 28.454 18.9198 28.7116 18.9107C28.5696 18.6808 27.45 17.6662 26.1051 17.5146C24.789 17.3663 23.5952 17.9712 23.3698 18.0931Z" fill="url(#paint13_linear_231_5400)"/>
<path d="M28.851 18.1376C27.8288 18.1376 27.0494 16.931 27.0412 16.9179L27.0197 16.8841L27.0544 16.8626C27.0544 16.8626 27.0882 16.842 27.1502 16.8091C27.0238 16.43 26.7382 15.3149 27.4928 14.7652C28.5331 14.007 29.0937 13.2999 29.0995 13.2925L29.1209 13.2653L29.1523 13.2817C29.1705 13.2916 29.1936 13.3139 29.2208 13.4087C29.3282 13.7746 29.3975 14.7874 28.9294 15.5811C28.7494 15.8869 28.4976 16.1679 28.1814 16.4176C28.6082 16.3129 29.0202 16.2824 29.4091 16.3261C30.437 16.4423 31.3146 17.1626 31.5788 17.4931C31.6457 17.5772 31.6523 17.611 31.649 17.6324L31.644 17.6662H31.6085C31.5986 17.6662 30.5856 17.6868 29.2151 18.0857C29.0912 18.1219 28.969 18.1384 28.8501 18.1384L28.851 18.1376ZM27.1345 16.9096C27.2847 17.128 28.1558 18.309 29.1919 18.0082C30.3916 17.6588 31.3212 17.5978 31.5524 17.5879C31.4236 17.3818 30.5138 16.5313 29.4 16.4061C28.9599 16.3566 28.4885 16.4052 27.9989 16.5503L27.762 16.6203L27.9626 16.4794C28.3506 16.2058 28.652 15.8901 28.8576 15.5415C29.362 14.6869 29.2184 13.6106 29.1284 13.3864C28.9872 13.5554 28.4423 14.1743 27.5423 14.8295C26.8092 15.3635 27.1254 16.4852 27.2393 16.8157L27.2501 16.8478L27.2195 16.8643C27.1832 16.8832 27.1543 16.8989 27.1337 16.9104L27.1345 16.9096Z" fill="url(#paint14_linear_231_5400)"/>
<path d="M31.6587 16.5923C30.7027 16.5923 29.9745 15.4649 29.9662 15.4525L29.9447 15.4187L29.9794 15.3973C29.9794 15.3973 29.9885 15.3923 30.005 15.3824C29.7144 14.9333 29.3305 14.1199 29.8044 13.468C30.5747 12.4081 30.8917 11.5452 30.895 11.5362L30.9066 11.504L30.9413 11.5106C30.9619 11.5147 30.9916 11.5296 31.0494 11.6136C31.2732 11.9384 31.6703 12.9067 31.4713 13.8248C31.3838 14.2286 31.1964 14.6275 30.9132 15.0124C31.3541 14.8904 31.7793 14.8517 32.1797 14.8962C33.1407 15.0042 33.9606 15.6775 34.2075 15.9865C34.271 16.0665 34.2768 16.0978 34.2735 16.1184L34.2685 16.1522H34.233C34.224 16.1522 33.2786 16.1711 31.9989 16.5437C31.8825 16.5774 31.7686 16.5923 31.6579 16.5923H31.6587ZM30.0603 15.4442C30.2048 15.6536 31.0139 16.7456 31.9766 16.4662C33.0896 16.1423 33.9523 16.0838 34.1761 16.0739C34.0481 15.8786 33.1961 15.0907 32.1715 14.9753C31.7471 14.9275 31.2922 14.977 30.8199 15.1228L30.6952 15.1616L30.7745 15.0602C31.0915 14.6555 31.2988 14.2336 31.3912 13.8075C31.6026 12.8342 31.1105 11.8073 30.9528 11.6169C30.8703 11.823 30.5392 12.5968 29.8721 13.5141C29.4139 14.1446 29.8168 14.9506 30.0983 15.3742L30.1223 15.4096L30.0843 15.4302C30.0752 15.4352 30.0678 15.4393 30.0603 15.4434V15.4442Z" fill="url(#paint15_linear_231_5400)"/>
<path d="M33.4702 15.0412C32.7164 15.0412 32.0807 14.2583 32.0501 14.2187L32.0245 14.1874L32.0567 14.1627C32.0567 14.1627 32.0675 14.1544 32.0865 14.1412C31.8041 13.8421 31.2674 13.1506 31.6026 12.4946C32.1046 11.5114 32.2541 10.7491 32.2557 10.7408L32.2623 10.707H32.2978C32.3176 10.7087 32.3457 10.7177 32.4068 10.782C32.6388 11.026 33.1028 11.7883 33.0591 12.5844C33.0326 13.0764 32.8394 13.5116 32.6578 13.8198C32.9666 13.6814 33.3959 13.5404 33.8682 13.5462C34.6897 13.5536 35.4451 14.0497 35.6821 14.2896C35.7448 14.353 35.7522 14.3802 35.7514 14.3992V14.4338L35.7151 14.4379C35.7068 14.4387 34.9134 14.5368 33.8706 14.9621C33.7352 15.0173 33.5998 15.0412 33.4694 15.0412H33.4702ZM32.1418 14.2014C32.2937 14.3761 33.0665 15.2035 33.8393 14.8879C34.7318 14.5236 35.4451 14.3967 35.6474 14.3662C35.5079 14.2063 34.7293 13.6344 33.8665 13.627C33.8599 13.627 33.8533 13.627 33.8467 13.627C33.3323 13.627 32.8683 13.8025 32.5686 13.9508L32.4349 14.0168L32.5141 13.894C32.7082 13.5932 32.9451 13.1209 32.9748 12.5811C33.0202 11.752 32.4885 10.9699 32.3234 10.8142C32.278 11.012 32.103 11.6927 31.6761 12.53C31.3508 13.1663 31.9189 13.8536 32.1781 14.1198L32.2111 14.1536L32.1723 14.18C32.1608 14.1882 32.15 14.1956 32.141 14.2014H32.1418Z" fill="url(#paint16_linear_231_5400)"/>
<path d="M34.7988 13.3302C34.2225 13.3302 33.6768 12.8563 33.6479 12.83L33.6174 12.8028L33.6454 12.7731C33.3556 12.4978 32.9412 11.9828 33.1682 11.4405C33.529 10.5784 33.6058 9.92652 33.6066 9.91993L33.6108 9.88531L33.6463 9.88367C33.6644 9.88367 33.69 9.88944 33.7478 9.94136C33.96 10.1342 34.4034 10.7523 34.4182 11.4298C34.424 11.7124 34.3662 12.0067 34.2448 12.3066C34.5156 12.1468 34.7922 12.0437 35.0688 11.9992C35.7582 11.888 36.4658 12.197 36.7002 12.3635C36.7638 12.4088 36.7746 12.4311 36.777 12.4492L36.782 12.483L36.7481 12.4929C36.7415 12.4945 36.0942 12.689 35.2893 13.1918C35.1307 13.2907 34.964 13.3294 34.7988 13.3294V13.3302ZM33.7354 12.797C33.8989 12.9289 34.6568 13.4909 35.2438 13.125C35.9217 12.7022 36.4905 12.4945 36.6672 12.4352C36.5137 12.319 35.7929 11.9638 35.082 12.0792C34.779 12.1278 34.4744 12.2506 34.178 12.4443L34.0591 12.5217L34.1177 12.394C34.2688 12.0643 34.3423 11.7405 34.3357 11.4322C34.3208 10.7408 33.8395 10.1251 33.6818 9.98998C33.6537 10.1738 33.5472 10.7507 33.2467 11.4701C33.0303 11.9869 33.4588 12.4888 33.7338 12.7418L33.7643 12.7698L33.7371 12.797H33.7354Z" fill="url(#paint17_linear_231_5400)"/>
<path d="M35.8822 11.6717C35.3836 11.6717 34.9096 11.2234 34.8849 11.1995L34.8568 11.1731L34.8659 11.1632C34.6174 10.9901 34.1509 10.588 34.3069 10.0992C34.5389 9.374 34.548 8.84243 34.548 8.83749V8.80287L34.5835 8.79793C34.6025 8.79463 34.6289 8.79958 34.6942 8.8482C34.8601 8.97017 35.3076 9.41191 35.3836 9.98304C35.4248 10.2946 35.358 10.5904 35.2779 10.8138C35.4835 10.6745 35.7683 10.5278 36.0985 10.4792C36.7112 10.3893 37.2957 10.6992 37.4691 10.8261C37.5376 10.8764 37.5492 10.9003 37.5516 10.9184L37.5558 10.9522L37.5219 10.9621C37.5161 10.9638 36.9679 11.1245 36.2835 11.558C36.1539 11.6404 36.0168 11.6725 35.8831 11.6725L35.8822 11.6717ZM34.9724 11.169C35.1144 11.2934 35.7452 11.8011 36.2381 11.4896C36.8061 11.1302 37.2833 10.9555 37.4418 10.902C37.3048 10.794 36.7013 10.4718 36.1101 10.5575C35.7311 10.6127 35.4133 10.8064 35.2135 10.9588L35.0888 11.0536L35.1499 10.911C35.2449 10.6893 35.3489 10.3506 35.301 9.99211C35.2275 9.43334 34.7751 9.00314 34.6281 8.90012C34.6182 9.0633 34.5753 9.53059 34.3862 10.1223C34.2376 10.5871 34.7321 10.977 34.9509 11.1228L34.9906 11.1492L34.9716 11.169H34.9724Z" fill="url(#paint18_linear_231_5400)"/>
<path d="M35.9424 9.54285C35.7154 9.9747 35.466 10.3942 35.1952 10.7997C34.9269 11.2068 34.6305 11.5958 34.3176 11.9708C33.7017 12.7224 32.9817 13.4023 32.2023 13.9932C31.8126 14.2891 31.4073 14.5643 30.987 14.8157C29.7362 15.564 28.3244 16.1162 26.9274 16.5827C25.9854 16.8958 25.0268 17.1711 24.0699 17.4686C23.9502 17.5057 23.8313 17.5444 23.7116 17.5832C22.8736 17.8543 22.0405 18.1584 21.2446 18.5334C20.7881 18.7485 20.334 18.9768 19.9013 19.2331C19.4637 19.4853 19.0443 19.7696 18.6431 20.0737L18.3459 20.3069C17.6746 20.8344 17.0546 21.5267 16.5922 22.2461C16.6162 22.2799 16.7623 22.3417 16.7904 22.3121C17.3576 21.7039 17.9041 21.0907 18.5853 20.6069L18.8916 20.4067C19.3028 20.1471 19.723 19.9006 20.1589 19.6822C20.5965 19.463 21.0399 19.2471 21.4948 19.0625C21.9456 18.868 22.4046 18.6916 22.867 18.5186L23.2137 18.3892L23.5622 18.2631C23.795 18.179 24.0286 18.0949 24.2631 18.0134C25.1994 17.6812 26.1464 17.3606 27.0892 17.0203C27.7968 16.7648 28.5027 16.4879 29.1855 16.1755L29.3572 16.0972C29.8724 15.8607 30.3711 15.592 30.8566 15.3019L31.1761 15.1017C31.5988 14.8297 32.005 14.5347 32.3931 14.219C33.5415 13.2688 34.5405 12.1298 35.3042 10.8648C35.5585 10.4436 35.7897 10.011 35.9977 9.56757L35.9432 9.54285H35.9424Z" fill="url(#paint19_linear_231_5400)"/>
<path d="M16.7639 22.359C16.7639 22.359 16.7581 22.359 16.7548 22.359C16.697 22.3557 16.5872 22.3087 16.5583 22.2683L16.5426 22.2469L16.5566 22.2246C17.0297 21.4895 17.6555 20.7972 18.3193 20.2755L18.6166 20.0423C19.0418 19.7201 19.4661 19.4366 19.8798 19.1992C20.2612 18.9734 20.6897 18.7509 21.2264 18.4979C21.9331 18.1649 22.7183 17.8624 23.6983 17.546L23.7462 17.5303C23.8494 17.4965 23.9534 17.4636 24.0566 17.4306C24.3877 17.3276 24.7188 17.227 25.049 17.1273C25.6625 16.9419 26.2974 16.7498 26.9133 16.5446C27.9858 16.1861 29.5726 15.6142 30.9646 14.7818C31.3774 14.5346 31.7853 14.2593 32.1758 13.9618C32.9775 13.3527 33.6867 12.6745 34.2836 11.9459C34.6238 11.5388 34.9095 11.1572 35.1588 10.7781C35.428 10.3743 35.6789 9.95233 35.9043 9.5246L35.9225 9.48999L36.0496 9.54933L36.0331 9.58559C35.8251 10.0282 35.5914 10.4658 35.338 10.8861C34.5784 12.1437 33.5959 13.2753 32.4177 14.2502C32.0247 14.5692 31.6144 14.8675 31.1966 15.1362L30.8771 15.3373C30.3504 15.6521 29.8583 15.9125 29.3728 16.135C29.3571 16.1425 29.3158 16.1614 29.2019 16.2133C28.5901 16.4935 27.9032 16.7705 27.1023 17.0597C26.5607 17.255 26.0092 17.4471 25.4759 17.6325C25.0746 17.7718 24.6742 17.9111 24.2754 18.0528C24.0591 18.1278 23.8444 18.2053 23.6298 18.2828L23.226 18.4286L22.8793 18.558C22.4665 18.713 21.9802 18.8984 21.5096 19.1011C21.0794 19.2758 20.6658 19.4753 20.1762 19.7201C19.7824 19.917 19.3687 20.1536 18.9121 20.442L18.6067 20.6414C17.9932 21.0774 17.4987 21.6098 16.9752 22.1727L16.8192 22.34C16.806 22.354 16.787 22.3614 16.7622 22.3614L16.7639 22.359ZM16.6458 22.237C16.6788 22.2568 16.7374 22.2774 16.7639 22.279L16.915 22.1167C17.4178 21.5752 17.9387 21.0148 18.5596 20.573L18.8676 20.372C19.3274 20.081 19.7427 19.8437 20.139 19.6451C20.6303 19.3995 21.0456 19.1992 21.4782 19.0237C21.9496 18.8201 22.4367 18.6338 22.8512 18.4789L23.6017 18.2036C23.8164 18.1262 24.0318 18.0487 24.2482 17.9737C24.6469 17.8319 25.0474 17.6927 25.4486 17.5534C25.982 17.368 26.5327 17.1768 27.0743 16.9814C27.8727 16.693 28.5571 16.4177 29.1672 16.1383C29.1672 16.1383 29.3332 16.0625 29.3381 16.06C29.8211 15.8392 30.3099 15.5796 30.8333 15.2672L31.152 15.067C31.5665 14.7999 31.9744 14.5041 32.3649 14.1876C33.5356 13.2192 34.5115 12.0943 35.267 10.8441C35.4329 10.5688 35.5906 10.2869 35.7376 10.0001C35.5774 10.2795 35.4073 10.554 35.2298 10.821C34.9788 11.2017 34.6915 11.5866 34.3497 11.9954C33.7495 12.7289 33.0353 13.4113 32.2278 14.0244C31.834 14.3236 31.4237 14.6013 31.0084 14.8494C29.6098 15.6859 28.0171 16.2603 26.9405 16.6196C26.3238 16.8248 25.6881 17.0177 25.0738 17.2031C24.7435 17.3028 24.4125 17.4034 24.0822 17.5064C23.979 17.5386 23.8758 17.5723 23.7726 17.6053L23.7247 17.621C22.748 17.9366 21.9661 18.2382 21.2635 18.5687C20.7285 18.8201 20.3033 19.0426 19.9235 19.2668C19.5124 19.5033 19.0905 19.7852 18.6694 20.1041L18.373 20.3373C17.7249 20.8467 17.1131 21.52 16.6475 22.237H16.6458Z" fill="url(#paint20_linear_231_5400)"/>
<path d="M36.7227 9.41374C37.1561 8.82283 37.1603 8.03742 37.1124 8.0061C37.1124 8.0061 36.9431 8.28137 36.2397 8.7536C35.6444 9.15331 35.6031 10.2535 35.6031 10.2535C35.6031 10.2535 36.2892 10.0046 36.7227 9.41374Z" fill="url(#paint21_linear_231_5400)"/>
<path d="M35.5594 10.3118L35.5619 10.2516C35.5635 10.2063 35.6114 9.12667 36.2166 8.72037C36.901 8.26132 37.0752 7.98771 37.0769 7.98524L37.0992 7.94897L37.1355 7.97205C37.1512 7.98194 37.1603 7.99925 37.1661 8.03056C37.1941 8.17973 37.1644 8.88025 36.7565 9.43572C36.3206 10.0299 35.6461 10.2796 35.618 10.2904L35.5602 10.3118H35.5594ZM37.0917 8.10062C36.9968 8.21352 36.764 8.45088 36.2636 8.7863C35.774 9.11513 35.6692 9.95328 35.6494 10.1906C35.8244 10.1148 36.3421 9.86263 36.6897 9.38957C37.0364 8.91734 37.1041 8.31242 37.0926 8.10062H37.0917Z" fill="url(#paint22_linear_231_5400)"/>
<path d="M14.9695 18.8177C15.502 18.7575 16.0114 18.8185 16.4473 18.9215C16.1138 18.7064 15.7736 18.4287 15.4871 18.0768C14.5608 16.937 14.5839 15.2862 14.6888 15.2087C14.6888 15.2087 15.5565 16.037 17.0773 16.8603C18.3636 17.5575 17.9046 19.5734 17.9046 19.5734C17.9046 19.5734 17.8294 19.5553 17.7031 19.5149C17.4422 19.8676 16.4226 21.1071 15.2031 20.7684C13.5288 20.3044 12.3118 20.292 12.3118 20.292C12.2936 20.166 13.4842 18.985 14.9695 18.8177Z" fill="url(#paint23_linear_231_5400)"/>
<path d="M11.4453 17.3731C12.9314 17.2058 14.2442 17.9788 14.2442 17.9788C14.2442 17.9788 13.0957 19.7178 11.679 19.3246C10.0046 18.8606 8.78762 18.8483 8.78762 18.8483C8.76946 18.7222 9.96001 17.5412 11.4453 17.3739V17.3731Z" fill="url(#paint24_linear_231_5400)"/>
<path d="M8.14867 16.2656C8.67046 16.2071 9.16666 16.2928 9.56626 16.4115C9.25253 16.1906 8.90494 15.8766 8.65973 15.4604C8.0983 14.5094 8.33113 13.2641 8.42112 13.2163C8.42112 13.2163 8.97842 13.9267 10.0352 14.6965C10.7907 15.2462 10.4711 16.3851 10.3523 16.728C10.4323 16.77 10.4761 16.7964 10.4761 16.7964C10.4761 16.7964 9.52746 18.2897 8.34847 17.946C6.95564 17.5406 5.94342 17.5257 5.94342 17.5257C5.92774 17.417 6.91271 16.4041 8.14701 16.2656H8.14867Z" fill="url(#paint25_linear_231_5400)"/>
<path d="M5.37941 14.8335C5.88635 14.7767 6.36768 14.8657 6.7483 14.9827C6.49896 14.6646 6.23558 14.2286 6.12412 13.7135C5.88552 12.6125 6.51712 11.4661 6.62115 11.4471C6.62115 11.4471 6.93406 12.3117 7.71758 13.388C8.19397 14.0424 7.76877 14.8764 7.49218 15.2934C7.53181 15.3148 7.55328 15.3288 7.55328 15.3288C7.55328 15.3288 6.66821 16.7233 5.56683 16.4027C4.26647 16.0244 3.32195 16.0104 3.32195 16.0104C3.30709 15.909 4.22684 14.9637 5.37941 14.8335Z" fill="url(#paint26_linear_231_5400)"/>
<path d="M3.68594 13.486C4.20691 13.4819 4.67587 13.6525 5.00282 13.814C4.80549 13.5074 4.56606 13.0303 4.53551 12.4814C4.4835 11.5287 5.16712 10.6493 5.25628 10.6469C5.25628 10.6469 5.40242 11.41 5.91266 12.4105C6.24786 13.0674 5.67653 13.7654 5.40325 14.0456C5.44535 14.0745 5.47012 14.0926 5.47012 14.0926C5.47012 14.0926 4.59496 15.1895 3.69668 14.8236C2.63575 14.3909 1.8415 14.2961 1.8415 14.2961C1.83902 14.2088 2.70097 13.4934 3.68429 13.4844L3.68594 13.486Z" fill="url(#paint27_linear_231_5400)"/>
<path d="M2.47933 11.9392C2.84426 11.9977 3.16047 12.1543 3.39991 12.31C3.28019 12.0488 3.17038 11.706 3.17864 11.331C3.19598 10.5225 3.83088 9.82114 3.90684 9.82361C3.90684 9.82361 3.98115 10.478 4.34772 11.3549C4.57642 11.9021 4.11077 12.4304 3.8507 12.671C3.86886 12.6892 3.87877 12.6999 3.87877 12.6999C3.87877 12.6999 2.98214 13.4919 2.28779 13.0584C1.46712 12.5466 0.818176 12.3546 0.818176 12.3546C0.828909 12.2812 1.65701 11.8065 2.47933 11.9384V11.9392Z" fill="url(#paint28_linear_231_5400)"/>
<path d="M2.62702 11.0553C2.63527 11.0644 2.64105 11.0702 2.64105 11.0702C2.64105 11.0702 1.88561 11.7962 1.29446 11.4221C0.596805 10.9803 0.0452881 10.8221 0.0452881 10.8221C0.05437 10.7562 0.753674 10.3153 1.45133 10.4175C1.83442 10.4735 2.15558 10.6655 2.36694 10.8262C2.26704 10.5946 2.16467 10.251 2.21255 9.8867C2.29842 9.23646 2.90112 8.72714 2.96552 8.7362C2.96552 8.7362 2.9713 9.27025 3.20826 10.0095C3.36512 10.499 2.85654 10.902 2.62702 11.0553Z" fill="url(#paint29_linear_231_5400)"/>
<path d="M15.1909 20.8067C13.5421 20.3493 12.3227 20.332 12.3103 20.3312H12.2748L12.2698 20.2966C12.2665 20.2743 12.2723 20.2405 12.3408 20.1548C12.638 19.7823 13.7114 18.9178 14.9638 18.7769C15.3725 18.7307 15.8043 18.7513 16.251 18.837C15.9397 18.6161 15.6722 18.3689 15.4534 18.0994C14.6724 17.1385 14.5469 15.7902 14.6088 15.3229C14.6228 15.2166 14.6435 15.1877 14.6625 15.1745L14.6914 15.1539L14.717 15.1778C14.7252 15.1861 15.5987 16.0119 17.0964 16.8228C18.3951 17.5266 17.9485 19.5598 17.9435 19.5804L17.9344 19.6208L17.8931 19.6109C17.8931 19.6109 17.8263 19.5944 17.7181 19.5606C17.4481 19.9191 16.6398 20.8652 15.6268 20.8652C15.4848 20.8652 15.3395 20.8471 15.1909 20.8059V20.8067ZM17.7156 19.4757C17.7842 19.498 17.8378 19.5128 17.8717 19.5227C17.927 19.2334 18.2011 17.5143 17.056 16.8945C15.7325 16.1775 14.892 15.4481 14.7005 15.2751C14.6319 15.5462 14.6839 17.0231 15.5186 18.0508C15.7713 18.3615 16.0908 18.6433 16.4689 18.8873L16.6646 19.0134L16.4359 18.9598C15.9265 18.8395 15.4336 18.8049 14.9729 18.8568C13.628 19.0084 12.5084 20.0221 12.3664 20.2529C12.624 20.262 13.7518 20.3246 15.2132 20.7292C16.3971 21.0572 17.392 19.8639 17.6686 19.4906L17.6867 19.4667L17.7156 19.4757Z" fill="url(#paint30_linear_231_5400)"/>
<path d="M11.6673 19.3628C10.0185 18.9054 8.79909 18.8881 8.78671 18.8873H8.75121L8.74625 18.8527C8.74295 18.8304 8.74873 18.7966 8.81726 18.7109C9.11448 18.3384 10.1878 17.4739 11.4411 17.3321C12.9247 17.1648 14.2532 17.9354 14.2664 17.9428L14.3027 17.9642L14.2796 17.9988C14.2763 18.003 13.984 18.4431 13.52 18.8279C13.0486 19.2194 12.5639 19.4197 12.0966 19.4197C11.9513 19.4197 11.8077 19.3999 11.6673 19.3611V19.3628ZM11.4502 17.4129C10.1052 17.5645 8.98569 18.579 8.84368 18.809C9.10127 18.818 10.2291 18.8807 11.6904 19.2853C12.9503 19.6339 14.0129 18.2337 14.1855 17.9914C13.9609 17.8695 12.767 17.2645 11.4502 17.4129Z" fill="url(#paint31_linear_231_5400)"/>
<path d="M8.33825 17.984C6.96771 17.5851 5.95466 17.5653 5.94476 17.5653H5.90926L5.9043 17.5307C5.901 17.5093 5.9076 17.4763 5.97448 17.3914C6.23868 17.0609 7.11632 16.3406 8.14422 16.2244C8.53309 16.1808 8.94508 16.2112 9.37193 16.3159C9.05489 16.0662 8.8039 15.7852 8.62391 15.4794C8.15578 14.6858 8.22596 13.6729 8.33247 13.307C8.36054 13.2122 8.38283 13.1899 8.40099 13.1801L8.43237 13.1636L8.45383 13.1908C8.45961 13.1982 9.01939 13.9053 10.0605 14.6635C10.8151 15.2132 10.5295 16.3283 10.4031 16.7074C10.4651 16.7403 10.4989 16.7609 10.4989 16.7609L10.5336 16.7824L10.5121 16.8162C10.5039 16.8294 9.72447 18.0359 8.70235 18.0359C8.58346 18.0359 8.46209 18.0194 8.33742 17.9831L8.33825 17.984ZM10.3338 16.7626L10.3032 16.7461L10.314 16.714C10.4279 16.3827 10.7441 15.2618 10.011 14.7278C9.11186 14.0726 8.56612 13.4528 8.42494 13.2847C8.33494 13.5089 8.19128 14.5852 8.69574 15.4399C8.90132 15.7885 9.20267 16.1041 9.59072 16.3777L9.79135 16.5187L9.55439 16.4486C9.0648 16.3035 8.59419 16.2549 8.15331 16.3044C7.03954 16.4296 6.13052 17.2802 6.0009 17.4862C6.23207 17.4961 7.16173 17.5571 8.36136 17.9065C9.39752 18.2073 10.2677 17.0263 10.4188 16.8079C10.3982 16.7964 10.3693 16.7807 10.333 16.7618L10.3338 16.7626Z" fill="url(#paint32_linear_231_5400)"/>
<path d="M5.55602 16.441C4.2763 16.0685 3.33179 16.0503 3.32188 16.0503H3.28638L3.28142 16.0157C3.27812 15.9951 3.2839 15.9638 3.34747 15.8839C3.59433 15.5748 4.41418 14.9015 5.37521 14.7935C5.77481 14.749 6.20083 14.7878 6.64172 14.9097C6.35935 14.5257 6.17193 14.1268 6.08359 13.7221C5.88462 12.8041 6.28174 11.8357 6.50549 11.511C6.56328 11.4269 6.59218 11.4121 6.61364 11.408L6.64832 11.4014L6.65988 11.4335C6.66318 11.4418 6.98022 12.3055 7.75053 13.3653C8.22444 14.0164 7.84052 14.8306 7.5499 15.2798C7.56641 15.2897 7.5755 15.2946 7.5755 15.2946L7.61017 15.316L7.58871 15.3498C7.58045 15.3622 6.85225 16.4896 5.89618 16.4896C5.78554 16.4896 5.67161 16.4748 5.55519 16.441H5.55602ZM7.47229 15.3284L7.43432 15.3078L7.45826 15.2724C7.7398 14.8479 8.1427 14.0427 7.68448 13.4123C7.01737 12.495 6.6863 11.7211 6.60374 11.5151C6.44604 11.7055 5.95397 12.7332 6.16533 13.7057C6.2578 14.1326 6.46503 14.5537 6.78207 14.9584L6.86133 15.0597L6.73666 15.021C6.2644 14.8751 5.80949 14.8249 5.38511 14.8735C4.36051 14.9889 3.50847 15.7767 3.3805 15.9721C3.60424 15.9819 4.46784 16.0405 5.57996 16.3643C6.54264 16.6437 7.35093 15.5517 7.49624 15.3424C7.48963 15.3383 7.48138 15.3342 7.47229 15.3292V15.3284Z" fill="url(#paint33_linear_231_5400)"/>
<path d="M3.68245 14.8605C2.63969 14.4353 1.84626 14.3372 1.83801 14.3364L1.80251 14.3323V14.2977C1.80085 14.2787 1.80829 14.2507 1.87103 14.188C2.10799 13.949 2.86343 13.4521 3.68493 13.4447C4.15719 13.4389 4.58651 13.5798 4.89529 13.7183C4.71366 13.4101 4.52046 12.9749 4.49404 12.4829C4.45028 11.6868 4.91511 10.9244 5.14628 10.6805C5.20738 10.6162 5.23545 10.6071 5.25527 10.6063H5.29077L5.29737 10.6393C5.29902 10.6467 5.44846 11.4099 5.95044 12.3931C6.28565 13.0491 5.74899 13.7405 5.46663 14.0397C5.48562 14.0537 5.49635 14.0611 5.49635 14.0611L5.52855 14.0858L5.50295 14.1172C5.47158 14.1559 4.83667 14.9397 4.08288 14.9397C3.95161 14.9397 3.81703 14.9158 3.68163 14.8605H3.68245ZM5.38159 14.0784L5.34278 14.0521L5.37581 14.0183C5.63505 13.7521 6.20308 13.0656 5.87779 12.4285C5.45011 11.5912 5.27508 10.9104 5.2305 10.7126C5.06455 10.8684 4.53367 11.6505 4.57908 12.4796C4.6088 13.0202 4.84576 13.4916 5.03978 13.7925L5.11904 13.9152L4.98529 13.8493C4.68559 13.701 4.22159 13.5254 3.70722 13.5254C3.70062 13.5254 3.69401 13.5254 3.68741 13.5254C2.82463 13.5328 2.04689 14.1048 1.90653 14.2647C2.10881 14.2952 2.82215 14.4221 3.71465 14.7864C4.48826 15.102 5.26022 14.2746 5.41213 14.0999C5.40305 14.0933 5.39315 14.0867 5.38076 14.0784H5.38159Z" fill="url(#paint34_linear_231_5400)"/>
<path d="M2.26507 13.0917C1.46009 12.5889 0.812795 12.3944 0.80619 12.3928L0.772339 12.3829L0.777293 12.3491C0.77977 12.331 0.791328 12.3079 0.854076 12.2634C1.08855 12.0969 1.79694 11.7879 2.48551 11.8991C2.7621 11.9436 3.03868 12.0467 3.30949 12.2065C3.18812 11.9066 3.13033 11.6123 3.1361 11.3297C3.15097 10.6522 3.59433 10.0341 3.80651 9.84126C3.86348 9.78934 3.88908 9.78357 3.90806 9.78357L3.94357 9.78522L3.94769 9.81983C3.94769 9.82642 4.0253 10.4783 4.3861 11.3404C4.61315 11.8827 4.19868 12.3977 3.90889 12.673L3.93696 12.7027L3.90641 12.7299C3.87752 12.7554 3.33178 13.2301 2.75549 13.2301C2.59119 13.2301 2.42359 13.1914 2.26507 13.0925V13.0917ZM3.79165 12.6689L3.8222 12.6409C4.09713 12.3879 4.52563 11.886 4.30932 11.3692C4.00797 10.6497 3.90229 10.072 3.87421 9.88906C3.71569 10.0242 3.23518 10.6399 3.22032 11.3313C3.21371 11.6395 3.28637 11.9634 3.43828 12.2931L3.4969 12.4208L3.37801 12.3434C3.08161 12.1505 2.77778 12.0277 2.47395 11.9783C1.76309 11.8637 1.04232 12.2181 0.888752 12.3343C1.06544 12.3936 1.63429 12.6013 2.31213 13.0241C2.89915 13.3908 3.65707 12.8288 3.82055 12.6961L3.7933 12.6689H3.79165Z" fill="url(#paint35_linear_231_5400)"/>
<path d="M1.27229 11.4567C0.587845 11.024 0.03963 10.8624 0.0338506 10.8608L0 10.8509L0.00412812 10.8171C0.006605 10.799 0.0181637 10.7751 0.0866906 10.7248C0.260072 10.5979 0.844614 10.288 1.45723 10.3779C1.78748 10.4265 2.07149 10.5732 2.27707 10.7125C2.19699 10.4891 2.13011 10.1932 2.17139 9.88172C2.24653 9.31059 2.69401 8.86885 2.86079 8.74688C2.92684 8.69826 2.95326 8.69331 2.97142 8.69661L3.0061 8.70155V8.73617C3.0061 8.74111 3.01518 9.27268 3.24718 9.99793C3.40323 10.4875 2.93675 10.8888 2.68823 11.0619L2.69732 11.0718L2.66925 11.0982C2.64448 11.1221 2.17057 11.5704 1.67189 11.5704C1.53731 11.5704 1.40109 11.5374 1.27146 11.4558L1.27229 11.4567ZM2.56439 11.0487L2.60402 11.0223C2.82364 10.8765 3.31736 10.4866 3.16875 10.0218C2.97968 9.42927 2.93675 8.96281 2.92684 8.79963C2.77988 8.90264 2.32744 9.33284 2.25396 9.89161C2.2069 10.2501 2.3101 10.5897 2.40505 10.8105L2.46614 10.9531L2.34147 10.8583C2.14167 10.7059 1.82381 10.513 1.44484 10.457C0.853696 10.3713 0.250164 10.6935 0.113111 10.8015C0.271631 10.8542 0.748842 11.0297 1.31687 11.3891C1.80977 11.7006 2.44055 11.1921 2.58255 11.0685L2.56357 11.0487H2.56439Z" fill="url(#paint36_linear_231_5400)"/>
<path d="M1.61284 9.44189C1.83989 9.87374 2.08923 10.2932 2.36003 10.6987C2.62836 11.1058 2.92476 11.4948 3.23767 11.8698C3.85359 12.6214 4.57353 13.3013 5.35292 13.8923C5.74261 14.1881 6.148 14.4634 6.56824 14.7147C7.81906 15.4631 9.23088 16.0152 10.6278 16.4817C11.5699 16.7949 12.5284 17.0701 13.4853 17.3676C13.605 17.4047 13.7239 17.4435 13.8436 17.4822C14.6816 17.7533 15.5147 18.0575 16.3106 18.4324C16.7672 18.6475 17.2213 18.8758 17.6539 19.1321C18.0915 19.3843 18.5109 19.6686 18.9122 19.9728L19.2094 20.206C19.8806 20.7334 20.5007 21.4257 20.963 22.1452C20.9391 22.179 20.7929 22.2408 20.7649 22.2111C20.1976 21.6029 19.6511 20.9897 18.9708 20.506L18.6645 20.3057C18.2533 20.0461 17.8331 19.7997 17.3971 19.5813C16.9595 19.3621 16.5162 19.1461 16.0613 18.9615C15.6105 18.767 15.1514 18.5907 14.6891 18.4176L14.3423 18.2882L13.9939 18.1621C13.7611 18.0781 13.5274 17.994 13.2929 17.9124C12.3567 17.5803 11.4097 17.2597 10.4668 16.9193C9.75928 16.6638 9.05337 16.3869 8.37058 16.0746L8.19885 15.9963C7.68366 15.7598 7.18498 15.4911 6.69951 15.201L6.38 15.0007C5.95728 14.7288 5.55107 14.4337 5.16303 14.1181C4.01458 13.1678 3.01558 12.0289 2.25187 10.7638C1.99758 10.3427 1.76641 9.91001 1.55835 9.46662L1.61284 9.44189Z" fill="url(#paint37_linear_231_5400)"/>
<path d="M20.733 22.2386L20.5769 22.0713C20.0535 21.5076 19.5589 20.976 18.9455 20.54L18.64 20.3406C18.1834 20.0521 17.7698 19.8156 17.376 19.6186C16.8864 19.3739 16.4727 19.1744 16.0426 18.9997C15.572 18.797 15.0857 18.6107 14.6729 18.4566L14.3261 18.3272L13.9224 18.1813C13.7077 18.1039 13.4931 18.0272 13.2767 17.9514C12.878 17.8097 12.4775 17.6704 12.0763 17.5311C11.5429 17.3457 10.9914 17.1536 10.4498 16.9583C9.64895 16.669 8.96285 16.393 8.35024 16.1119C8.23548 16.0592 8.19502 16.041 8.17933 16.0328C7.69387 15.8111 7.20262 15.5499 6.67504 15.2359L6.35553 15.0356C5.93776 14.7669 5.52743 14.4694 5.13443 14.1496C3.95626 13.1747 2.97459 12.0431 2.21419 10.7855C1.96072 10.3652 1.72625 9.92757 1.51902 9.485L1.5025 9.44874L1.62965 9.3894L1.64781 9.42402C1.87321 9.85257 2.12337 10.2737 2.39335 10.6775C2.64269 11.0558 2.92836 11.4382 3.26851 11.8453C3.86544 12.5739 4.57465 13.2522 5.37634 13.8612C5.76768 14.1587 6.17472 14.434 6.58753 14.6812C7.97871 15.5136 9.56638 16.0856 10.6389 16.4441C11.2548 16.6493 11.8889 16.8413 12.5031 17.0267C12.8334 17.1264 13.1645 17.227 13.4955 17.33C13.5996 17.3621 13.7028 17.3959 13.806 17.4297L13.8539 17.4454C14.8339 17.7627 15.619 18.0651 16.3258 18.3973C16.8624 18.6503 17.2909 18.8736 17.6724 19.0986C18.086 19.3368 18.5112 19.6203 18.9356 19.9417L19.2328 20.1749C19.8966 20.6966 20.5224 21.3889 20.9955 22.124L21.0095 22.1463L20.9939 22.1677C20.965 22.2081 20.8552 22.2551 20.7974 22.2584C20.7941 22.2584 20.7916 22.2584 20.7883 22.2584C20.7635 22.2584 20.7445 22.2509 20.7313 22.2369L20.733 22.2386ZM19.1824 20.2384L18.886 20.0052C18.4641 19.6854 18.0423 19.4044 17.6319 19.1678C17.2521 18.9437 16.8261 18.7212 16.2919 18.4698C15.5893 18.1385 14.8066 17.8377 13.8307 17.522L13.7829 17.5064C13.6796 17.4726 13.5764 17.4396 13.4732 17.4075C13.1422 17.3045 12.8119 17.2047 12.4817 17.1042C11.8674 16.9179 11.2325 16.7259 10.6149 16.5207C9.53831 16.1614 7.94568 15.5869 6.54707 14.7504C6.13178 14.5016 5.72145 14.2246 5.32762 13.9255C4.52016 13.3123 3.80682 12.6299 3.20577 11.8964C2.86396 11.4877 2.57664 11.1028 2.32565 10.722C2.14732 10.455 1.97724 10.1806 1.81789 9.9012C1.96485 10.188 2.12255 10.4699 2.2885 10.7451C3.04312 11.9945 4.01983 13.1195 5.19057 14.0887C5.58027 14.406 5.98895 14.7018 6.40341 14.968L6.72211 15.1683C7.24555 15.4806 7.73515 15.7402 8.21731 15.9611C8.22227 15.9636 8.38822 16.0394 8.38822 16.0394C8.99835 16.3188 9.6828 16.5949 10.4812 16.8825C11.0228 17.0778 11.5735 17.2698 12.1068 17.4544C12.5081 17.5937 12.9085 17.733 13.3073 17.8748C13.5236 17.9498 13.7391 18.0272 13.9538 18.1047L14.7042 18.38C15.1187 18.5349 15.6058 18.7212 16.0773 18.9247C16.5091 19.1003 16.9252 19.2997 17.4164 19.5461C17.8127 19.7447 18.2288 19.9821 18.6879 20.273L18.9958 20.4741C19.6175 20.9158 20.1377 21.4763 20.6405 22.0177L20.7916 22.1801C20.818 22.1784 20.8766 22.1578 20.9096 22.138C20.4432 21.421 19.8314 20.7477 19.1841 20.2384H19.1824Z" fill="url(#paint38_linear_231_5400)"/>
<path d="M0.833377 9.31132C0.399924 8.72041 0.395796 7.935 0.443682 7.90369C0.443682 7.90369 0.612935 8.17895 1.31637 8.65118C1.91164 9.05089 1.95292 10.1511 1.95292 10.1511C1.95292 10.1511 1.26683 9.90223 0.833377 9.31132Z" fill="url(#paint39_linear_231_5400)"/>
<path d="M1.93762 10.1894C1.90872 10.1787 1.23501 9.9298 0.799083 9.33477C0.391224 8.7793 0.361501 8.07796 0.389572 7.92961C0.395352 7.89829 0.404434 7.88099 0.420121 7.8711L0.456448 7.84802L0.47874 7.88428C0.47874 7.88428 0.655424 8.16037 1.33904 8.61942C1.94422 9.02572 1.99211 10.1053 1.99376 10.1507L1.99624 10.2108L1.93845 10.1894H1.93762ZM0.865958 9.28862C1.21272 9.76168 1.73121 10.0139 1.90625 10.0897C1.88643 9.85233 1.78158 9.01418 1.29198 8.68535C0.791652 8.34992 0.558826 8.11257 0.463879 7.99966C0.45232 8.21147 0.520021 8.81639 0.866784 9.28862H0.865958Z" fill="url(#paint40_linear_231_5400)"/>
<defs>
<linearGradient id="paint0_linear_231_5400" x1="13.359" y1="1.85756" x2="22.1627" y2="12.5018" gradientUnits="userSpaceOnUse">
<stop stop-color="#F7AA00"/>
<stop offset="0.35" stop-color="#F9DB00"/>
<stop offset="0.73" stop-color="#ED9700"/>
<stop offset="1" stop-color="#F7AA00"/>
</linearGradient>
<linearGradient id="paint1_linear_231_5400" x1="11.1298" y1="14.4541" x2="13.9206" y2="17.1194" gradientUnits="userSpaceOnUse">
<stop stop-color="#F7AA00"/>
<stop offset="0.35" stop-color="#F9DB00"/>
<stop offset="0.73" stop-color="#ED9700"/>
<stop offset="1" stop-color="#F7AA00"/>
</linearGradient>
<linearGradient id="paint2_linear_231_5400" x1="11.1008" y1="14.4161" x2="13.9604" y2="17.1385" gradientUnits="userSpaceOnUse">
<stop stop-color="#F7AA00"/>
<stop offset="0.35" stop-color="#F9DB00"/>
<stop offset="0.73" stop-color="#ED9700"/>
<stop offset="1" stop-color="#F7AA00"/>
</linearGradient>
<linearGradient id="paint3_linear_231_5400" x1="23.7561" y1="14.5548" x2="26.5469" y2="17.2201" gradientUnits="userSpaceOnUse">
<stop stop-color="#F7AA00"/>
<stop offset="0.35" stop-color="#F9DB00"/>
<stop offset="0.73" stop-color="#ED9700"/>
<stop offset="1" stop-color="#F7AA00"/>
</linearGradient>
<linearGradient id="paint4_linear_231_5400" x1="23.728" y1="14.516" x2="26.5876" y2="17.2382" gradientUnits="userSpaceOnUse">
<stop stop-color="#F7AA00"/>
<stop offset="0.35" stop-color="#F9DB00"/>
<stop offset="0.73" stop-color="#ED9700"/>
<stop offset="1" stop-color="#F7AA00"/>
</linearGradient>
<linearGradient id="paint5_linear_231_5400" x1="20.401" y1="16.1332" x2="24.3731" y2="20.1442" gradientUnits="userSpaceOnUse">
<stop stop-color="#F7AA00"/>
<stop offset="0.35" stop-color="#F9DB00"/>
<stop offset="0.73" stop-color="#ED9700"/>
<stop offset="1" stop-color="#F7AA00"/>
</linearGradient>
<linearGradient id="paint6_linear_231_5400" x1="24.1095" y1="17.7477" x2="25.0502" y2="20.2724" gradientUnits="userSpaceOnUse">
<stop stop-color="#F7AA00"/>
<stop offset="0.35" stop-color="#F9DB00"/>
<stop offset="0.73" stop-color="#ED9700"/>
<stop offset="1" stop-color="#F7AA00"/>
</linearGradient>
<linearGradient id="paint7_linear_231_5400" x1="27.7028" y1="14.0181" x2="31.0804" y2="17.2524" gradientUnits="userSpaceOnUse">
<stop stop-color="#F7AA00"/>
<stop offset="0.35" stop-color="#F9DB00"/>
<stop offset="0.73" stop-color="#ED9700"/>
<stop offset="1" stop-color="#F7AA00"/>
</linearGradient>
<linearGradient id="paint8_linear_231_5400" x1="30.297" y1="12.2818" x2="33.8231" y2="15.5312" gradientUnits="userSpaceOnUse">
<stop stop-color="#F7AA00"/>
<stop offset="0.35" stop-color="#F9DB00"/>
<stop offset="0.73" stop-color="#ED9700"/>
<stop offset="1" stop-color="#F7AA00"/>
</linearGradient>
<linearGradient id="paint9_linear_231_5400" x1="32.1503" y1="11.3696" x2="35.1561" y2="14.3203" gradientUnits="userSpaceOnUse">
<stop stop-color="#F7AA00"/>
<stop offset="0.35" stop-color="#F9DB00"/>
<stop offset="0.73" stop-color="#ED9700"/>
<stop offset="1" stop-color="#F7AA00"/>
</linearGradient>
<linearGradient id="paint10_linear_231_5400" x1="33.6721" y1="10.4157" x2="36.0461" y2="12.9494" gradientUnits="userSpaceOnUse">
<stop stop-color="#F7AA00"/>
<stop offset="0.35" stop-color="#F9DB00"/>
<stop offset="0.73" stop-color="#ED9700"/>
<stop offset="1" stop-color="#F7AA00"/>
</linearGradient>
<linearGradient id="paint11_linear_231_5400" x1="34.7845" y1="9.24673" x2="36.7421" y2="11.4842" gradientUnits="userSpaceOnUse">
<stop stop-color="#F7AA00"/>
<stop offset="0.35" stop-color="#F9DB00"/>
<stop offset="0.73" stop-color="#ED9700"/>
<stop offset="1" stop-color="#F7AA00"/>
</linearGradient>
<linearGradient id="paint12_linear_231_5400" x1="20.3745" y1="16.0943" x2="24.414" y2="20.1618" gradientUnits="userSpaceOnUse">
<stop stop-color="#F7AA00"/>
<stop offset="0.35" stop-color="#F9DB00"/>
<stop offset="0.73" stop-color="#ED9700"/>
<stop offset="1" stop-color="#F7AA00"/>
</linearGradient>
<linearGradient id="paint13_linear_231_5400" x1="24.0655" y1="17.7205" x2="25.0582" y2="20.3313" gradientUnits="userSpaceOnUse">
<stop stop-color="#F7AA00"/>
<stop offset="0.35" stop-color="#F9DB00"/>
<stop offset="0.73" stop-color="#ED9700"/>
<stop offset="1" stop-color="#F7AA00"/>
</linearGradient>
<linearGradient id="paint14_linear_231_5400" x1="27.6731" y1="13.9794" x2="31.1154" y2="17.2704" gradientUnits="userSpaceOnUse">
<stop stop-color="#F7AA00"/>
<stop offset="0.35" stop-color="#F9DB00"/>
<stop offset="0.73" stop-color="#ED9700"/>
<stop offset="1" stop-color="#F7AA00"/>
</linearGradient>
<linearGradient id="paint15_linear_231_5400" x1="30.2684" y1="12.2497" x2="33.8546" y2="15.5574" gradientUnits="userSpaceOnUse">
<stop stop-color="#F7AA00"/>
<stop offset="0.35" stop-color="#F9DB00"/>
<stop offset="0.73" stop-color="#ED9700"/>
<stop offset="1" stop-color="#F7AA00"/>
</linearGradient>
<linearGradient id="paint16_linear_231_5400" x1="32.1192" y1="11.3422" x2="35.1834" y2="14.3508" gradientUnits="userSpaceOnUse">
<stop stop-color="#F7AA00"/>
<stop offset="0.35" stop-color="#F9DB00"/>
<stop offset="0.73" stop-color="#ED9700"/>
<stop offset="1" stop-color="#F7AA00"/>
</linearGradient>
<linearGradient id="paint17_linear_231_5400" x1="33.6416" y1="10.3888" x2="36.0735" y2="12.9848" gradientUnits="userSpaceOnUse">
<stop stop-color="#F7AA00"/>
<stop offset="0.35" stop-color="#F9DB00"/>
<stop offset="0.73" stop-color="#ED9700"/>
<stop offset="1" stop-color="#F7AA00"/>
</linearGradient>
<linearGradient id="paint18_linear_231_5400" x1="34.7561" y1="9.21851" x2="36.7718" y2="11.5179" gradientUnits="userSpaceOnUse">
<stop stop-color="#F7AA00"/>
<stop offset="0.35" stop-color="#F9DB00"/>
<stop offset="0.73" stop-color="#ED9700"/>
<stop offset="1" stop-color="#F7AA00"/>
</linearGradient>
<linearGradient id="paint19_linear_231_5400" x1="19.4341" y1="11.4153" x2="27.7335" y2="24.0203" gradientUnits="userSpaceOnUse">
<stop stop-color="#F7AA00"/>
<stop offset="0.35" stop-color="#F9DB00"/>
<stop offset="0.73" stop-color="#ED9700"/>
<stop offset="1" stop-color="#F7AA00"/>
</linearGradient>
<linearGradient id="paint20_linear_231_5400" x1="19.3993" y1="11.3763" x2="27.7671" y2="24.0579" gradientUnits="userSpaceOnUse">
<stop stop-color="#F7AA00"/>
<stop offset="0.35" stop-color="#F9DB00"/>
<stop offset="0.73" stop-color="#ED9700"/>
<stop offset="1" stop-color="#F7AA00"/>
</linearGradient>
<linearGradient id="paint21_linear_231_5400" x1="35.8271" y1="8.33546" x2="37.3055" y2="9.34158" gradientUnits="userSpaceOnUse">
<stop stop-color="#F7AA00"/>
<stop offset="0.35" stop-color="#F9DB00"/>
<stop offset="0.73" stop-color="#ED9700"/>
<stop offset="1" stop-color="#F7AA00"/>
</linearGradient>
<linearGradient id="paint22_linear_231_5400" x1="35.7958" y1="8.29524" x2="37.3523" y2="9.35872" gradientUnits="userSpaceOnUse">
<stop stop-color="#F7AA00"/>
<stop offset="0.35" stop-color="#F9DB00"/>
<stop offset="0.73" stop-color="#ED9700"/>
<stop offset="1" stop-color="#F7AA00"/>
</linearGradient>
<linearGradient id="paint23_linear_231_5400" x1="13.1423" y1="16.032" x2="17.1144" y2="20.043" gradientUnits="userSpaceOnUse">
<stop stop-color="#F7AA00"/>
<stop offset="0.35" stop-color="#F9DB00"/>
<stop offset="0.73" stop-color="#ED9700"/>
<stop offset="1" stop-color="#F7AA00"/>
</linearGradient>
<linearGradient id="paint24_linear_231_5400" x1="9.58654" y1="17.6473" x2="10.5272" y2="20.1721" gradientUnits="userSpaceOnUse">
<stop stop-color="#F7AA00"/>
<stop offset="0.35" stop-color="#F9DB00"/>
<stop offset="0.73" stop-color="#ED9700"/>
<stop offset="1" stop-color="#F7AA00"/>
</linearGradient>
<linearGradient id="paint25_linear_231_5400" x1="6.61373" y1="13.917" x2="9.99131" y2="17.1513" gradientUnits="userSpaceOnUse">
<stop stop-color="#F7AA00"/>
<stop offset="0.35" stop-color="#F9DB00"/>
<stop offset="0.73" stop-color="#ED9700"/>
<stop offset="1" stop-color="#F7AA00"/>
</linearGradient>
<linearGradient id="paint26_linear_231_5400" x1="3.99699" y1="12.1804" x2="7.52316" y2="15.4297" gradientUnits="userSpaceOnUse">
<stop stop-color="#F7AA00"/>
<stop offset="0.35" stop-color="#F9DB00"/>
<stop offset="0.73" stop-color="#ED9700"/>
<stop offset="1" stop-color="#F7AA00"/>
</linearGradient>
<linearGradient id="paint27_linear_231_5400" x1="2.45271" y1="11.2699" x2="5.45843" y2="14.2206" gradientUnits="userSpaceOnUse">
<stop stop-color="#F7AA00"/>
<stop offset="0.35" stop-color="#F9DB00"/>
<stop offset="0.73" stop-color="#ED9700"/>
<stop offset="1" stop-color="#F7AA00"/>
</linearGradient>
<linearGradient id="paint28_linear_231_5400" x1="1.34405" y1="10.3167" x2="3.71805" y2="12.8504" gradientUnits="userSpaceOnUse">
<stop stop-color="#F7AA00"/>
<stop offset="0.35" stop-color="#F9DB00"/>
<stop offset="0.73" stop-color="#ED9700"/>
<stop offset="1" stop-color="#F7AA00"/>
</linearGradient>
<linearGradient id="paint29_linear_231_5400" x1="0.512816" y1="9.14542" x2="2.47035" y2="11.3828" gradientUnits="userSpaceOnUse">
<stop stop-color="#F7AA00"/>
<stop offset="0.35" stop-color="#F9DB00"/>
<stop offset="0.73" stop-color="#ED9700"/>
<stop offset="1" stop-color="#F7AA00"/>
</linearGradient>
<linearGradient id="paint30_linear_231_5400" x1="13.1115" y1="15.9909" x2="17.1499" y2="20.0585" gradientUnits="userSpaceOnUse">
<stop stop-color="#F7AA00"/>
<stop offset="0.35" stop-color="#F9DB00"/>
<stop offset="0.73" stop-color="#ED9700"/>
<stop offset="1" stop-color="#F7AA00"/>
</linearGradient>
<linearGradient id="paint31_linear_231_5400" x1="9.55937" y1="17.6178" x2="10.5507" y2="20.227" gradientUnits="userSpaceOnUse">
<stop stop-color="#F7AA00"/>
<stop offset="0.35" stop-color="#F9DB00"/>
<stop offset="0.73" stop-color="#ED9700"/>
<stop offset="1" stop-color="#F7AA00"/>
</linearGradient>
<linearGradient id="paint32_linear_231_5400" x1="6.5859" y1="13.8776" x2="10.0277" y2="17.1686" gradientUnits="userSpaceOnUse">
<stop stop-color="#F7AA00"/>
<stop offset="0.35" stop-color="#F9DB00"/>
<stop offset="0.73" stop-color="#ED9700"/>
<stop offset="1" stop-color="#F7AA00"/>
</linearGradient>
<linearGradient id="paint33_linear_231_5400" x1="3.96799" y1="12.147" x2="7.5542" y2="15.4548" gradientUnits="userSpaceOnUse">
<stop stop-color="#F7AA00"/>
<stop offset="0.35" stop-color="#F9DB00"/>
<stop offset="0.73" stop-color="#ED9700"/>
<stop offset="1" stop-color="#F7AA00"/>
</linearGradient>
<linearGradient id="paint34_linear_231_5400" x1="2.42541" y1="11.2414" x2="5.48903" y2="14.2495" gradientUnits="userSpaceOnUse">
<stop stop-color="#F7AA00"/>
<stop offset="0.35" stop-color="#F9DB00"/>
<stop offset="0.73" stop-color="#ED9700"/>
<stop offset="1" stop-color="#F7AA00"/>
</linearGradient>
<linearGradient id="paint35_linear_231_5400" x1="1.31114" y1="10.2887" x2="3.74303" y2="12.8847" gradientUnits="userSpaceOnUse">
<stop stop-color="#F7AA00"/>
<stop offset="0.35" stop-color="#F9DB00"/>
<stop offset="0.73" stop-color="#ED9700"/>
<stop offset="1" stop-color="#F7AA00"/>
</linearGradient>
<linearGradient id="paint36_linear_231_5400" x1="0.480115" y1="9.11707" x2="2.49532" y2="11.4154" gradientUnits="userSpaceOnUse">
<stop stop-color="#F7AA00"/>
<stop offset="0.35" stop-color="#F9DB00"/>
<stop offset="0.73" stop-color="#ED9700"/>
<stop offset="1" stop-color="#F7AA00"/>
</linearGradient>
<linearGradient id="paint37_linear_231_5400" x1="4.4001" y1="11.3144" x2="12.6996" y2="23.919" gradientUnits="userSpaceOnUse">
<stop stop-color="#F7AA00"/>
<stop offset="0.35" stop-color="#F9DB00"/>
<stop offset="0.73" stop-color="#ED9700"/>
<stop offset="1" stop-color="#F7AA00"/>
</linearGradient>
<linearGradient id="paint38_linear_231_5400" x1="4.35924" y1="11.2753" x2="12.7248" y2="23.956" gradientUnits="userSpaceOnUse">
<stop stop-color="#F7AA00"/>
<stop offset="0.35" stop-color="#F9DB00"/>
<stop offset="0.73" stop-color="#ED9700"/>
<stop offset="1" stop-color="#F7AA00"/>
</linearGradient>
<linearGradient id="paint39_linear_231_5400" x1="0.647394" y1="8.23305" x2="2.12574" y2="9.23916" gradientUnits="userSpaceOnUse">
<stop stop-color="#F7AA00"/>
<stop offset="0.35" stop-color="#F9DB00"/>
<stop offset="0.73" stop-color="#ED9700"/>
<stop offset="1" stop-color="#F7AA00"/>
</linearGradient>
<linearGradient id="paint40_linear_231_5400" x1="0.61826" y1="8.19429" x2="2.17474" y2="9.25777" gradientUnits="userSpaceOnUse">
<stop stop-color="#F7AA00"/>
<stop offset="0.35" stop-color="#F9DB00"/>
<stop offset="0.73" stop-color="#ED9700"/>
<stop offset="1" stop-color="#F7AA00"/>
</linearGradient>
</defs>
</svg>
