<svg width="32" height="36" viewBox="0 0 32 36" fill="none" xmlns="http://www.w3.org/2000/svg">
<path d="M11.0213 35.48L8.28132 33.04C8.13132 32.9 7.93132 32.82 7.72132 32.8L4.33132 32.52C4.08132 32.5 3.93132 32.24 4.03132 32.01L8.88132 21.02L16.4513 24.36L11.6013 35.35C11.5013 35.58 11.2113 35.64 11.0213 35.48Z" fill="url(#paint0_linear_131_2302)"/>
<path d="M21.43 35.48L24.17 33.04C24.32 32.9 24.52 32.82 24.73 32.8L28.12 32.52C28.37 32.5 28.52 32.24 28.42 32.01L23.57 21.02L16 24.36L20.85 35.35C20.95 35.58 21.24 35.64 21.43 35.48Z" fill="url(#paint1_linear_131_2302)"/>
<path d="M28.8933 17.7071C30.0863 10.3249 25.069 3.37339 17.6868 2.18038C10.3047 0.987379 3.35313 6.00468 2.16013 13.3868C0.967121 20.769 5.98442 27.7205 13.3666 28.9135C20.7487 30.1065 27.7003 25.0892 28.8933 17.7071Z" fill="url(#paint2_linear_131_2302)"/>
<path d="M27.9564 18.383C29.5782 11.474 25.292 4.55834 18.383 2.93656C11.4739 1.31478 4.55827 5.60097 2.93649 12.51C1.31471 19.4191 5.60091 26.3347 12.51 27.9565C19.419 29.5783 26.3347 25.2921 27.9564 18.383Z" fill="url(#paint3_linear_131_2302)"/>
<path d="M24.387 17.4302C25.5714 12.3927 22.4477 7.34883 17.4102 6.16449C12.3726 4.98016 7.32876 8.10382 6.14442 13.1414C4.96009 18.1789 8.08375 23.2228 13.1213 24.4071C18.1589 25.5915 23.2027 22.4678 24.387 17.4302Z" fill="url(#paint4_linear_131_2302)"/>
<g style="mix-blend-mode:overlay">
<path d="M6.47 15.85C6.47 10.68 10.66 6.49002 15.83 6.49002C18.3 6.49002 20.53 7.45002 22.21 9.01002C20.5 7.18002 18.07 6.02002 15.37 6.02002C10.19 6.02002 6 10.21 6 15.38C6 18.08 7.15 20.51 8.99 22.22C7.43 20.55 6.47 18.31 6.47 15.84V15.85Z" fill="white"/>
</g>
<g style="mix-blend-mode:multiply" opacity="0.54">
<path d="M15.36 6.02002C15.28 6.02002 15.2 6.02002 15.12 6.03002C19.92 6.16002 23.78 10.08 23.78 14.91C23.78 19.74 19.8 23.8 14.89 23.8C9.98 23.8 6.14 19.95 6.01 15.15C6.01 15.23 6 15.31 6 15.39C6 20.56 10.19 24.76 15.36 24.76C20.53 24.76 24.73 20.57 24.73 15.39C24.73 10.21 20.54 6.02002 15.36 6.02002Z" fill="#591706"/>
</g>
<path d="M13.4312 14.0723H14.6265C15.0913 14.0723 15.4759 13.992 15.7803 13.8315C16.0902 13.6711 16.3198 13.4497 16.4692 13.1675C16.6187 12.8853 16.6934 12.5615 16.6934 12.1963C16.6934 11.8145 16.6242 11.488 16.4858 11.2168C16.353 10.9401 16.1483 10.7271 15.8716 10.5776C15.6004 10.4282 15.2546 10.3535 14.834 10.3535C14.4798 10.3535 14.1589 10.4255 13.8711 10.5693C13.5889 10.7077 13.3647 10.9069 13.1987 11.167C13.0327 11.4215 12.9497 11.7259 12.9497 12.0801H10.9409C10.9409 11.4382 11.1097 10.8682 11.4473 10.3701C11.7848 9.87207 12.2441 9.48193 12.8252 9.19971C13.4118 8.91195 14.0703 8.76807 14.8008 8.76807C15.5811 8.76807 16.2617 8.89811 16.8428 9.1582C17.4294 9.41276 17.8859 9.7946 18.2124 10.3037C18.5389 10.8128 18.7021 11.4437 18.7021 12.1963C18.7021 12.5394 18.6219 12.888 18.4614 13.2422C18.3009 13.5964 18.063 13.9201 17.7476 14.2134C17.4321 14.5011 17.0392 14.7363 16.5688 14.9189C16.0985 15.096 15.5534 15.1846 14.9336 15.1846H13.4312V14.0723ZM13.4312 15.6328V14.5371H14.9336C15.6419 14.5371 16.2451 14.6201 16.7432 14.7861C17.2467 14.9521 17.6562 15.1818 17.9717 15.4751C18.2871 15.7629 18.5168 16.0921 18.6606 16.4629C18.8101 16.8337 18.8848 17.2266 18.8848 17.6416C18.8848 18.2061 18.7824 18.7096 18.5776 19.1523C18.3784 19.5895 18.0934 19.9603 17.7227 20.2646C17.3519 20.569 16.9175 20.7987 16.4194 20.9536C15.9269 21.1086 15.3901 21.186 14.8091 21.186C14.2889 21.186 13.7909 21.1141 13.3149 20.9702C12.839 20.8263 12.4129 20.6133 12.0366 20.3311C11.6603 20.0433 11.3615 19.6864 11.1401 19.2603C10.9243 18.8286 10.8164 18.3306 10.8164 17.7661H12.8169C12.8169 18.1258 12.8999 18.444 13.0659 18.7207C13.2375 18.9919 13.4754 19.2049 13.7798 19.3599C14.0897 19.5148 14.4438 19.5923 14.8423 19.5923C15.2629 19.5923 15.6253 19.5176 15.9297 19.3682C16.234 19.2188 16.4665 18.9974 16.627 18.7041C16.793 18.4108 16.876 18.0566 16.876 17.6416C16.876 17.1712 16.7847 16.7894 16.6021 16.4961C16.4194 16.2028 16.1593 15.987 15.8218 15.8486C15.4842 15.7048 15.0858 15.6328 14.6265 15.6328H13.4312Z" fill="#591706"/>
<defs>
<linearGradient id="paint0_linear_131_2302" x1="8.41132" y1="31.92" x2="10.6813" y2="27.29" gradientUnits="userSpaceOnUse">
<stop stop-color="#D60909"/>
<stop offset="1" stop-color="#A00505"/>
</linearGradient>
<linearGradient id="paint1_linear_131_2302" x1="23.7" y1="31.85" x2="21.64" y2="26.79" gradientUnits="userSpaceOnUse">
<stop stop-color="#D60909"/>
<stop offset="1" stop-color="#A00505"/>
</linearGradient>
<linearGradient id="paint2_linear_131_2302" x1="4.16402" y1="4.18294" x2="24.944" y2="24.9629" gradientUnits="userSpaceOnUse">
<stop stop-color="#BF4500"/>
<stop offset="0.35" stop-color="#E96800"/>
<stop offset="0.73" stop-color="#7F2E00"/>
<stop offset="1" stop-color="#BF4500"/>
</linearGradient>
<linearGradient id="paint3_linear_131_2302" x1="27.2322" y1="27.2391" x2="5.96223" y2="5.96912" gradientUnits="userSpaceOnUse">
<stop stop-color="#BF4500"/>
<stop offset="0.35" stop-color="#E96800"/>
<stop offset="0.73" stop-color="#7F2E00"/>
<stop offset="1" stop-color="#BF4500"/>
</linearGradient>
<linearGradient id="paint4_linear_131_2302" x1="23.4197" y1="23.4438" x2="3.27974" y2="3.30383" gradientUnits="userSpaceOnUse">
<stop stop-color="#BF4500"/>
<stop offset="0.35" stop-color="#E96800"/>
<stop offset="0.73" stop-color="#7F2E00"/>
<stop offset="1" stop-color="#BF4500"/>
</linearGradient>
</defs>
</svg>
