<svg width="24" height="24" viewBox="0 0 24 24" fill="none" xmlns="http://www.w3.org/2000/svg">
<rect x="1.5" y="18.3" width="21" height="2" rx="0.5" stroke="white"/>
<path d="M2.17981 18.3156V12.0367C2.17981 10.9321 3.07524 10.0367 4.17981 10.0367H8.78531V18.3156H2.17981Z" stroke="white"/>
<path d="M15.3908 18.3156V10.8294H19.9963C21.1009 10.8294 21.9963 11.7248 21.9963 12.8294V18.3156H15.3908Z" stroke="white"/>
<path d="M8.78531 18.3156V9.59267C8.78531 8.4881 9.68074 7.59267 10.7853 7.59267H13.3908C14.4954 7.59267 15.3908 8.4881 15.3908 9.59267V18.3156H8.78531Z" stroke="#00EE57"/>
<path d="M10.0994 5.5576C10.1053 5.58166 10.1159 5.6043 10.1307 5.62419C10.1455 5.64407 10.1641 5.6608 10.1855 5.67338C10.2068 5.68596 10.2305 5.69414 10.2551 5.69743C10.2797 5.70073 10.3047 5.69907 10.3287 5.69256C11.4216 5.39064 12.5762 5.39064 13.6691 5.69256C13.693 5.69907 13.718 5.70073 13.7426 5.69743C13.7672 5.69414 13.7909 5.68596 13.8123 5.67338C13.8336 5.6608 13.8523 5.64407 13.867 5.62419C13.8818 5.6043 13.8925 5.58166 13.8983 5.5576L14.483 3.08029C14.491 3.04714 14.4896 3.0124 14.4788 2.98C14.4681 2.94761 14.4486 2.91884 14.4223 2.89696C14.3961 2.87507 14.3643 2.86094 14.3304 2.85615C14.2966 2.85136 14.2621 2.8561 14.2308 2.86985L13.0707 3.38453C13.0286 3.40299 12.9812 3.40526 12.9376 3.3909C12.894 3.37653 12.8573 3.34656 12.8345 3.30675L12.1605 2.0944C12.1446 2.0658 12.1214 2.04196 12.0932 2.02536C12.0649 2.00876 12.0328 2 12 2C11.9672 2 11.9351 2.00876 11.9069 2.02536C11.8786 2.04196 11.8554 2.0658 11.8395 2.0944L11.1655 3.30675C11.1427 3.34656 11.106 3.37653 11.0624 3.3909C11.0188 3.40526 10.9714 3.40299 10.9293 3.38453L9.76925 2.86985C9.73796 2.8561 9.70344 2.85136 9.66959 2.85615C9.63574 2.86094 9.6039 2.87507 9.57768 2.89696C9.55145 2.91884 9.53188 2.94761 9.52116 2.98C9.51045 3.0124 9.50903 3.04714 9.51706 3.08029L10.0994 5.5576Z" stroke="#00EE57" stroke-linecap="round" stroke-linejoin="round"/>
</svg>
