<svg width="87" height="52" viewBox="0 0 87 52" fill="none" xmlns="http://www.w3.org/2000/svg">
<g clip-path="url(#clip0_131_2345)">
<path d="M53.3175 13.5726C52.5102 14.933 50.5178 14.8622 49.8093 13.4478L44.9613 3.77038C44.2237 2.29808 42.1224 2.29813 41.3849 3.77047L36.8369 12.8501C36.1284 14.2645 34.136 14.3354 33.3287 12.975L30.3138 7.89415C29.2236 6.05693 26.3989 6.97922 26.6029 9.10578L28.3923 27.7558C28.4908 28.7816 29.3526 29.5648 30.3832 29.5648H56.617C57.6476 29.5648 58.5094 28.7816 58.6078 27.7558L60.3972 9.1065C60.6012 6.97991 57.7764 6.05763 56.6863 7.89492L53.3175 13.5726Z" fill="url(#paint0_linear_131_2345)"/>
<path d="M27.2269 38.7197C24.7652 36.3541 24.3349 32.5509 24.5549 32.3447C24.5549 32.3447 26.7927 34.0096 30.5281 35.4854C33.6898 36.7341 33.2212 41.4976 33.2212 41.4976C33.2212 41.4976 29.6885 41.0852 27.2269 38.7178V38.7197Z" fill="url(#paint1_linear_131_2345)"/>
<path d="M33.21 41.5908C33.1736 41.587 29.616 41.1459 27.1602 38.7861C25.0849 36.791 24.4021 33.7266 24.4097 32.6346C24.4097 32.3845 24.4518 32.3138 24.4901 32.2775L24.5494 32.2222L24.6144 32.2718C24.6373 32.289 26.8866 33.9481 30.5647 35.401C33.7551 36.6611 33.3228 41.4591 33.3171 41.5068L33.3075 41.6023L33.21 41.5908ZM27.294 38.6525C29.4745 40.7469 32.5424 41.3025 33.1315 41.3903C33.1736 40.7106 33.3037 36.6821 30.4901 35.571C27.2367 34.2861 25.0926 32.8389 24.601 32.4933C24.5226 33.1348 25.0734 36.518 27.2921 38.6506L27.294 38.6525Z" fill="url(#paint2_linear_131_2345)"/>
<path d="M59.7727 38.9526C62.2343 36.587 62.6647 32.7838 62.4447 32.5776C62.4447 32.5776 60.2069 34.2425 56.4715 35.7183C53.3098 36.967 53.7784 41.7305 53.7784 41.7305C53.7784 41.7305 57.3111 41.3181 59.7727 38.9507V38.9526Z" fill="url(#paint3_linear_131_2345)"/>
<path d="M53.6925 41.8352L53.683 41.7397C53.6792 41.692 53.245 36.8941 56.4353 35.634C60.1153 34.181 62.3646 32.5219 62.3857 32.5047L62.4507 32.4551L62.51 32.5104C62.5482 32.5467 62.5884 32.6174 62.5903 32.8675C62.598 33.9596 61.9151 37.0239 59.8399 39.019C57.384 41.3808 53.8245 41.8199 53.7901 41.8237L53.6925 41.8352ZM62.3971 32.7281C61.9075 33.0737 59.7615 34.5209 56.508 35.8058C53.6945 36.917 53.8245 40.9436 53.8666 41.6251C54.4557 41.5354 57.5255 40.9817 59.7041 38.8873C61.9228 36.7547 62.4736 33.3715 62.3952 32.73L62.3971 32.7281Z" fill="url(#paint4_linear_131_2345)"/>
<path d="M52.3214 44.0275C51.0877 43.8882 49.9076 44.0295 48.8977 44.2681C49.6705 43.7698 50.4585 43.1264 51.1222 42.3111C53.2682 39.6707 53.2146 35.8465 52.9717 35.667C52.9717 35.667 50.9615 37.5858 47.4384 39.4931C44.4584 41.1083 45.5219 45.7783 45.5219 45.7783C45.5219 45.7783 45.6959 45.7363 45.9886 45.6428C46.593 46.4599 48.9551 49.3314 51.7801 48.5467C55.659 47.4718 58.4783 47.4432 58.4783 47.4432C58.5204 47.1511 55.7623 44.4151 52.3214 44.0275Z" fill="url(#paint5_linear_131_2345)"/>
<path d="M60.4845 40.6824C57.0416 40.2948 54.0005 42.0856 54.0005 42.0856C54.0005 42.0856 56.661 46.1141 59.9432 45.2034C63.8221 44.1285 66.6414 44.0999 66.6414 44.0999C66.6835 43.8078 63.9254 41.0718 60.4845 40.6843V40.6824Z" fill="url(#paint6_linear_131_2345)"/>
<path d="M68.1218 38.1164C66.913 37.9809 65.7635 38.1794 64.8377 38.4544C65.5645 37.9427 66.3698 37.2153 66.9378 36.2511C68.2385 34.0478 67.6991 31.163 67.4906 31.0522C67.4906 31.0522 66.1995 32.698 63.7513 34.4812C62.0012 35.7547 62.7414 38.3933 63.0169 39.1875C62.8313 39.2849 62.7299 39.346 62.7299 39.346C62.7299 39.346 64.9276 42.8055 67.6589 42.0094C70.8856 41.07 73.2305 41.0356 73.2305 41.0356C73.2669 40.7836 70.9851 38.4372 68.1256 38.1164H68.1218Z" fill="url(#paint7_linear_131_2345)"/>
<path d="M74.537 34.7982C73.3626 34.6664 72.2475 34.8726 71.3657 35.1438C71.9434 34.4068 72.5535 33.3968 72.8117 32.2035C73.3645 29.6528 71.9013 26.997 71.6603 26.9531C71.6603 26.9531 70.9335 28.9559 69.1203 31.4494C68.0167 32.9653 69.0017 34.8975 69.6424 35.8635C69.5506 35.9132 69.5009 35.9456 69.5009 35.9456C69.5009 35.9456 71.5513 39.1761 74.1028 38.4334C77.1153 37.557 79.3034 37.5246 79.3034 37.5246C79.3378 37.2897 77.2071 35.0998 74.537 34.7982Z" fill="url(#paint8_linear_131_2345)"/>
<path d="M78.4598 31.6745C77.2529 31.6649 76.1665 32.0602 75.4091 32.4344C75.8662 31.7241 76.4209 30.6187 76.4917 29.3471C76.6122 27.1401 75.0285 25.1029 74.8219 25.0972C74.8219 25.0972 74.4834 26.8651 73.3013 29.1829C72.5248 30.7046 73.8484 32.3217 74.4815 32.9709C74.3839 33.0377 74.3265 33.0797 74.3265 33.0797C74.3265 33.0797 76.354 35.6209 78.435 34.7732C80.8928 33.7708 82.7327 33.5513 82.7327 33.5513C82.7385 33.3489 80.7417 31.6917 78.4637 31.6707L78.4598 31.6745Z" fill="url(#paint9_linear_131_2345)"/>
<path d="M81.2561 28.091C80.4107 28.2265 79.6782 28.5893 79.1235 28.9501C79.4008 28.3449 79.6552 27.5507 79.6361 26.682C79.5959 24.809 78.1251 23.1842 77.9491 23.19C77.9491 23.19 77.777 24.7059 76.9278 26.7373C76.3979 28.0051 77.4767 29.2289 78.0792 29.7864C78.0371 29.8284 78.0142 29.8532 78.0142 29.8532C78.0142 29.8532 80.0913 31.688 81.6999 30.6837C83.6011 29.4981 85.1044 29.0532 85.1044 29.0532C85.0796 28.8833 83.1612 27.7836 81.2561 28.0891V28.091Z" fill="url(#paint10_linear_131_2345)"/>
<path d="M80.9139 26.0462C80.8948 26.0672 80.8814 26.0806 80.8814 26.0806C80.8814 26.0806 82.6315 27.7626 84.001 26.8958C85.6172 25.8725 86.8949 25.5059 86.8949 25.5059C86.8738 25.3532 85.2538 24.3317 83.6376 24.5685C82.7501 24.6983 82.0061 25.1431 81.5164 25.5154C81.7479 24.9789 81.985 24.1828 81.8741 23.3389C81.6752 21.8325 80.2789 20.6526 80.1297 20.6736C80.1297 20.6736 80.1163 21.9108 79.5674 23.6234C79.204 24.7575 80.3822 25.6911 80.9139 26.0462Z" fill="url(#paint11_linear_131_2345)"/>
<path d="M50.7969 48.7759C48.4501 48.7759 46.5776 46.5841 45.9521 45.7536C45.6997 45.8319 45.5524 45.8682 45.5467 45.8701L45.451 45.893L45.43 45.7994C45.4185 45.7517 44.3837 41.0416 47.3924 39.4111C50.862 37.5324 52.8856 35.6194 52.9047 35.6003L52.964 35.5449L53.031 35.5927C53.073 35.6232 53.1209 35.6881 53.1553 35.9363C53.3006 37.0189 53.0099 40.1405 51.1986 42.3685C50.6918 42.9929 50.072 43.5656 49.351 44.0773C50.3857 43.8787 51.388 43.831 52.3328 43.9379C55.2344 44.2644 57.7208 46.2672 58.4094 47.1302C58.5662 47.3268 58.5815 47.407 58.5739 47.4586L58.5624 47.5388H58.4802C58.4515 47.5388 55.6265 47.5808 51.8068 48.6404C51.4626 48.7358 51.1259 48.7798 50.7969 48.7798V48.7759ZM46.0248 45.5341L46.0669 45.5894C46.7076 46.4543 49.0124 49.2189 51.7552 48.459C55.1406 47.5197 57.7534 47.3765 58.3501 47.3555C58.0211 46.8228 55.4275 44.4725 52.3118 44.1212C51.2445 44.0009 50.1026 44.0811 48.9225 44.3599L48.3927 44.484L48.846 44.1919C49.722 43.6267 50.4622 42.9738 51.0475 42.254C52.9812 39.8732 53.1017 36.4518 52.943 35.8237C52.4992 36.2246 50.5521 37.9143 47.4861 39.5753C44.8332 41.013 45.4701 44.9937 45.5964 45.6639C45.6748 45.6429 45.7991 45.6066 45.9579 45.5551L46.0248 45.5341Z" fill="url(#paint12_linear_131_2345)"/>
<path d="M58.9754 45.4268C57.8948 45.4268 56.772 44.9629 55.678 44.056C54.605 43.1644 53.926 42.1448 53.9183 42.1353L53.8647 42.0551L53.9489 42.0054C53.9795 41.9883 57.057 40.2031 60.4941 40.5907C63.3975 40.9172 65.8821 42.92 66.5726 43.7849C66.7294 43.9815 66.7428 44.0617 66.7371 44.1132L66.7256 44.1934H66.6433C66.6146 44.1934 63.7896 44.2354 59.97 45.2951C59.6429 45.3848 59.312 45.4306 58.9754 45.4306V45.4268ZM54.1383 42.1162C54.538 42.6775 56.9996 45.9213 59.9184 45.1137C63.3038 44.1743 65.9165 44.0311 66.5133 44.0101C66.1843 43.4775 63.5907 41.1272 60.475 40.7759C57.4261 40.4322 54.6604 41.8336 54.1383 42.1162Z" fill="url(#paint13_linear_131_2345)"/>
<path d="M66.8387 42.2195C64.4708 42.2195 62.6652 39.4244 62.6461 39.3939L62.5963 39.3156L62.6767 39.266C62.6767 39.266 62.7551 39.2182 62.8985 39.1419C62.6059 38.2636 61.9441 35.6804 63.6923 34.4069C66.1023 32.6504 67.401 31.0123 67.4144 30.9951L67.4641 30.9321L67.5368 30.9703C67.5789 30.9932 67.6324 31.0448 67.6955 31.2643C67.9442 32.112 68.1048 34.4585 67.0204 36.2971C66.6034 37.0054 66.02 37.6565 65.2875 38.235C66.2763 37.9925 67.2307 37.9218 68.1316 38.023C70.5129 38.2922 72.5461 39.9609 73.1581 40.7265C73.3131 40.9213 73.3284 40.9995 73.3207 41.0492L73.3092 41.1275H73.227C73.204 41.1275 70.8572 41.1752 67.6821 42.0993C67.3952 42.1833 67.1122 42.2215 66.8367 42.2215L66.8387 42.2195ZM62.8622 39.3748C63.2103 39.8807 65.2282 42.6167 67.6286 41.9198C70.4077 41.1103 72.5614 40.969 73.0969 40.9461C72.7986 40.4688 70.6908 38.4984 68.1106 38.2082C67.0911 38.0937 65.999 38.2063 64.8648 38.5424L64.3158 38.7046L64.7806 38.3782C65.6796 37.7443 66.3777 37.0131 66.854 36.2054C68.0226 34.2256 67.6898 31.7321 67.4813 31.2128C67.1542 31.6042 65.8919 33.038 63.8071 34.5559C62.1086 35.7931 62.8412 38.3915 63.1051 39.1571L63.13 39.2316L63.0592 39.2698C62.975 39.3137 62.9081 39.35 62.8603 39.3767L62.8622 39.3748Z" fill="url(#paint14_linear_131_2345)"/>
<path d="M73.34 38.6377C71.1251 38.6377 69.4381 36.0259 69.419 35.9973L69.3693 35.919L69.4496 35.8693C69.4496 35.8693 69.4706 35.8579 69.5089 35.835C68.8356 34.7944 67.9462 32.91 69.0441 31.3998C70.8286 28.9445 71.5631 26.9456 71.5708 26.9246L71.5975 26.8501L71.6779 26.8654C71.7257 26.8749 71.7945 26.9093 71.9284 27.104C72.4468 27.8563 73.3668 30.0996 72.9058 32.2265C72.7031 33.162 72.2689 34.0861 71.6128 34.9777C72.6342 34.6952 73.6192 34.6054 74.5469 34.7085C76.7732 34.9586 78.6725 36.5185 79.2444 37.2344C79.3917 37.4196 79.4051 37.4922 79.3974 37.5399L79.3859 37.6182H79.3037C79.2827 37.6182 77.0926 37.6621 74.128 38.5251C73.8583 38.6034 73.5944 38.6377 73.3381 38.6377H73.34ZM69.637 35.9782C69.9718 36.4631 71.8462 38.9928 74.0764 38.3456C76.6546 37.5953 78.6534 37.4597 79.1717 37.4368C78.8753 36.9843 76.9014 35.1591 74.5277 34.8918C73.5446 34.7811 72.4907 34.8956 71.3967 35.2336L71.1079 35.3233L71.2915 35.0885C72.026 34.151 72.5061 33.1735 72.7203 32.1864C73.2099 29.9316 72.07 27.5527 71.7046 27.1117C71.5134 27.589 70.7464 29.3817 69.2009 31.5067C68.1394 32.9673 69.0728 34.8345 69.725 35.8159L69.7805 35.898L69.6925 35.9457C69.6715 35.9572 69.6542 35.9667 69.637 35.9763V35.9782Z" fill="url(#paint15_linear_131_2345)"/>
<path d="M77.538 35.0446C75.7917 35.0446 74.3189 33.2308 74.2482 33.1392L74.1889 33.0666L74.2635 33.0093C74.2635 33.0093 74.2883 32.9902 74.3323 32.9597C73.6782 32.2666 72.4349 30.6648 73.2115 29.145C74.3744 26.8673 74.7206 25.1013 74.7244 25.0822L74.7397 25.0039H74.822C74.8679 25.0077 74.9329 25.0287 75.0744 25.1776C75.6119 25.7428 76.6868 27.5088 76.5854 29.3531C76.5242 30.493 76.0767 31.501 75.6559 32.2151C76.3712 31.8943 77.3658 31.5679 78.4599 31.5812C80.363 31.5984 82.1131 32.7478 82.662 33.3034C82.8074 33.4504 82.8246 33.5134 82.8227 33.5573V33.6375L82.7385 33.647C82.7194 33.6489 80.8813 33.8761 78.4656 34.8613C78.1519 34.9892 77.8383 35.0446 77.5361 35.0446H77.538ZM74.4605 33.0991C74.8124 33.5038 76.6027 35.4207 78.3929 34.6895C80.4605 33.8456 82.1131 33.5516 82.5817 33.4809C82.2584 33.1105 80.4548 31.7855 78.456 31.7683C78.4407 31.7683 78.4254 31.7683 78.4101 31.7683C77.2185 31.7683 76.1436 32.175 75.4493 32.5187L75.1395 32.6714L75.3231 32.3869C75.7726 31.6901 76.3215 30.5961 76.3904 29.3455C76.4956 27.4248 75.2638 25.613 74.8813 25.2521C74.7761 25.7103 74.3706 27.2874 73.3817 29.2271C72.6281 30.7011 73.944 32.2934 74.5446 32.9101L74.6211 32.9883L74.5312 33.0494C74.5045 33.0685 74.4796 33.0857 74.4586 33.0991H74.4605Z" fill="url(#paint16_linear_131_2345)"/>
<path d="M80.6155 31.0811C79.2805 31.0811 78.0162 29.9833 77.9492 29.9222L77.8785 29.8592L77.9435 29.7905C77.2722 29.1528 76.312 27.9595 76.838 26.7032C77.6738 24.7062 77.8517 23.196 77.8536 23.1807L77.8632 23.1005L77.9454 23.0967C77.9875 23.0967 78.0468 23.11 78.1807 23.2303C78.6722 23.6771 79.6993 25.109 79.7338 26.6784C79.7472 27.3333 79.6133 28.0149 79.3321 28.7098C79.9595 28.3394 80.6002 28.1008 81.241 27.9977C82.838 27.7399 84.4772 28.4559 85.0204 28.8416C85.1677 28.9466 85.1926 28.9981 85.1983 29.0401L85.2098 29.1184L85.1313 29.1413C85.116 29.1451 83.6165 29.5957 81.7516 30.7604C81.3844 30.9895 80.9981 31.0792 80.6155 31.0792V31.0811ZM78.152 29.8458C78.5307 30.1513 80.2865 31.4534 81.6464 30.6057C83.2168 29.6263 84.5346 29.1451 84.9439 29.0077C84.5881 28.7385 82.9184 27.9156 81.2716 28.1829C80.5696 28.2955 79.8638 28.58 79.1772 29.0287L78.9018 29.2081L79.0376 28.9122C79.3876 28.1485 79.5578 27.3982 79.5425 26.6841C79.5081 25.0823 78.393 23.6561 78.0277 23.343C77.9626 23.7687 77.7159 25.1052 77.0197 26.772C76.5186 27.9691 77.5112 29.1318 78.1482 29.7179L78.2189 29.7828L78.1558 29.8458H78.152Z" fill="url(#paint17_linear_131_2345)"/>
<path d="M83.1251 27.2414C81.9698 27.2414 80.872 26.2028 80.8146 26.1474L80.7495 26.0863L80.7706 26.0634C80.1949 25.6625 79.1142 24.7308 79.4757 23.5986C80.0132 21.9185 80.0342 20.687 80.0342 20.6755V20.5954L80.1165 20.5839C80.1604 20.5763 80.2216 20.5877 80.3727 20.7004C80.7572 20.9829 81.7939 22.0063 81.9698 23.3294C82.0655 24.0511 81.9105 24.7365 81.725 25.2539C82.2013 24.9312 82.8611 24.5914 83.6262 24.4787C85.0454 24.2706 86.3996 24.9885 86.8013 25.2825C86.96 25.399 86.9868 25.4544 86.9925 25.4964L87.0021 25.5746L86.9237 25.5976C86.9103 25.6014 85.6403 25.9737 84.0547 26.9779C83.7544 27.1689 83.4369 27.2433 83.127 27.2433L83.1251 27.2414ZM81.0173 26.0768C81.3463 26.3651 82.8076 27.5412 83.9495 26.8195C85.2654 25.987 86.3709 25.5823 86.7381 25.4582C86.4206 25.2081 85.0225 24.4616 83.653 24.6601C82.7751 24.788 82.0387 25.2367 81.5758 25.5899L81.287 25.8095L81.4286 25.4792C81.6485 24.9656 81.8895 24.1809 81.7786 23.3504C81.6083 22.0559 80.5602 21.0593 80.2197 20.8206C80.1968 21.1987 80.0973 22.2812 79.6593 23.652C79.315 24.7289 80.4607 25.6319 80.9676 25.9699L81.0594 26.031L81.0154 26.0768H81.0173Z" fill="url(#paint18_linear_131_2345)"/>
<path d="M83.2644 22.3076C82.7384 23.3081 82.1608 24.2799 81.5334 25.2192C80.9118 26.1624 80.2252 27.0635 79.5003 27.9322C78.0734 29.6735 76.4056 31.2486 74.6 32.6175C73.6972 33.3029 72.7581 33.9406 71.7845 34.5229C68.8868 36.2565 65.6161 37.5357 62.3799 38.6163C60.1975 39.3418 57.9769 39.9795 55.7601 40.6688C55.4828 40.7547 55.2074 40.8444 54.93 40.9341C52.9887 41.5623 51.0588 42.2668 49.2149 43.1355C48.1572 43.6338 47.1053 44.1627 46.103 44.7564C45.0893 45.3407 44.1177 45.9993 43.1881 46.7039L42.4995 47.2442C40.9445 48.4661 39.5081 50.0698 38.437 51.7366C38.4925 51.8149 38.831 51.9581 38.8961 51.8893C40.2101 50.4803 41.4763 49.0599 43.0542 47.9391L43.7638 47.4752C44.7163 46.8738 45.6899 46.3029 46.6998 45.797C47.7135 45.2891 48.7406 44.7889 49.7945 44.3612C50.8388 43.9106 51.9023 43.5021 52.9734 43.1011L53.7767 42.8014L54.5838 42.5093C55.1232 42.3145 55.6645 42.1198 56.2077 41.9308C58.3767 41.1613 60.5705 40.4186 62.7548 39.6301C64.3939 39.0383 66.0293 38.3968 67.6111 37.6732L68.0089 37.4918C69.2024 36.9438 70.3577 36.3214 71.4823 35.6494L72.2225 35.1854C73.2018 34.5554 74.1429 33.8719 75.0418 33.1406C77.7023 30.9393 80.0167 28.3007 81.7859 25.37C82.375 24.3944 82.9106 23.3921 83.3926 22.3649L83.2663 22.3076H83.2644Z" fill="url(#paint19_linear_131_2345)"/>
<path d="M38.8349 52.0002C38.8349 52.0002 38.8215 52.0002 38.8138 52.0002C38.6799 51.9926 38.4256 51.8838 38.3586 51.7902L38.3223 51.7406L38.3548 51.689C39.4507 49.986 40.9006 48.3822 42.4383 47.1737L43.1269 46.6334C44.1119 45.8869 45.0951 45.2301 46.0533 44.6802C46.937 44.1571 47.9296 43.6416 49.1729 43.0555C50.8101 42.2841 52.6291 41.5834 54.8994 40.8503L55.0104 40.814C55.2494 40.7357 55.4904 40.6594 55.7295 40.583C56.4965 40.3444 57.2635 40.1114 58.0286 39.8804C59.4497 39.4508 60.9205 39.006 62.3474 38.5306C64.832 37.7001 68.5081 36.375 71.7329 34.4467C72.6892 33.8739 73.6341 33.2363 74.5388 32.547C76.396 31.1361 78.039 29.5648 79.4219 27.877C80.2099 26.9339 80.8717 26.0499 81.4493 25.1716C82.0728 24.2361 82.6543 23.2586 83.1764 22.2677L83.2185 22.1875L83.5131 22.325L83.4748 22.409C82.9928 23.4342 82.4515 24.448 81.8643 25.4217C80.1047 28.3352 77.8286 30.9566 75.0992 33.2153C74.1888 33.9541 73.2382 34.6453 72.2704 35.2677L71.5302 35.7335C70.3099 36.4629 69.1699 37.0662 68.0453 37.5817C68.0089 37.5989 67.9133 37.6428 67.6493 37.7631C66.232 38.4122 64.6407 39.0537 62.7854 39.7238C61.5307 40.1763 60.253 40.6212 59.0174 41.0508C58.0879 41.3734 57.1602 41.6961 56.2364 42.0245C55.7353 42.1982 55.238 42.3777 54.7407 42.5572L53.8054 42.8951L53.0021 43.1948C52.0457 43.5538 50.9192 43.9834 49.8289 44.453C48.8324 44.8578 47.8742 45.3198 46.74 45.8869C45.8276 46.3432 44.8694 46.8911 43.8116 47.5594L43.104 48.0214C41.6828 49.0314 40.5371 50.2648 39.3245 51.5688L38.963 51.9563C38.9324 51.9888 38.8884 52.006 38.831 52.006L38.8349 52.0002ZM38.5614 51.7177C38.6379 51.7635 38.7737 51.8112 38.8349 51.8151L39.1849 51.4389C40.3497 50.1846 41.5566 48.8863 42.9949 47.8629L43.7084 47.3971C44.7737 46.7231 45.7358 46.1733 46.6539 45.7131C47.7919 45.1442 48.754 44.6802 49.7562 44.2736C50.8484 43.802 51.9769 43.3705 52.937 43.0116L54.6756 42.3739C55.1729 42.1944 55.6722 42.0149 56.1733 41.8412C57.0971 41.5128 58.0247 41.1901 58.9543 40.8675C60.1899 40.4379 61.4657 39.995 62.7204 39.5425C64.5699 38.8742 66.1555 38.2366 67.569 37.5893C67.569 37.5893 67.9534 37.4137 67.9649 37.4079C69.0838 36.8963 70.2161 36.2949 71.4288 35.5713L72.1671 35.1073C73.1272 34.4887 74.0721 33.8033 74.9768 33.0702C77.689 30.8268 79.9498 28.2207 81.6999 25.3244C82.0843 24.6867 82.4496 24.0337 82.7901 23.3693C82.419 24.0166 82.025 24.6523 81.6138 25.2709C81.0323 26.153 80.3667 27.0446 79.5749 27.9916C78.1844 29.6908 76.5299 31.2717 74.6593 32.6921C73.7469 33.3852 72.7963 34.0286 71.8343 34.6033C68.5942 36.5412 64.9046 37.8719 62.4105 38.7043C60.9817 39.1797 59.509 39.6265 58.086 40.0561C57.3209 40.2871 56.5539 40.52 55.7888 40.7587C55.5497 40.8331 55.3107 40.9114 55.0716 40.9878L54.9606 41.024C52.6979 41.7553 50.8866 42.4541 49.259 43.2197C48.0195 43.802 47.0345 44.3175 46.1547 44.8368C45.2022 45.3847 44.2248 46.0377 43.2493 46.7766L42.5627 47.3169C41.0612 48.4968 39.6439 50.0566 38.5652 51.7177H38.5614Z" fill="url(#paint20_linear_131_2345)"/>
<path d="M85.0721 22.0061C86.0763 20.6372 86.0858 18.8177 85.9749 18.7451C85.9749 18.7451 85.5828 19.3828 83.9532 20.4768C82.5741 21.4028 82.4785 23.9516 82.4785 23.9516C82.4785 23.9516 84.0679 23.375 85.0721 22.0061Z" fill="url(#paint21_linear_131_2345)"/>
<path d="M82.377 24.089L82.3827 23.9496C82.3865 23.8446 82.4975 21.3435 83.8994 20.4023C85.4851 19.3388 85.8886 18.705 85.8925 18.6992L85.9441 18.6152L86.0283 18.6687C86.0646 18.6916 86.0856 18.7317 86.099 18.8042C86.1641 19.1498 86.0952 20.7727 85.1503 22.0595C84.1404 23.4361 82.5778 24.0146 82.5128 24.0394L82.3789 24.089H82.377ZM85.9269 18.9665C85.7069 19.2281 85.1675 19.778 84.0085 20.555C82.8742 21.3168 82.6313 23.2585 82.5854 23.8084C82.9909 23.6327 84.1902 23.0485 84.9954 21.9526C85.7987 20.8586 85.9556 19.4572 85.9288 18.9665H85.9269Z" fill="url(#paint22_linear_131_2345)"/>
<path d="M34.6789 43.7946C35.9125 43.6553 37.0927 43.7965 38.1026 44.0352C37.3298 43.5369 36.5418 42.8935 35.8781 42.0782C33.7321 39.4378 33.7856 35.6136 34.0286 35.4341C34.0286 35.4341 36.0388 37.3529 39.5619 39.2602C42.5419 40.8754 41.4784 45.5454 41.4784 45.5454C41.4784 45.5454 41.3044 45.5034 41.0117 45.4099C40.4073 46.227 38.0452 49.0985 35.2202 48.3138C31.3412 47.2389 28.522 47.2103 28.522 47.2103C28.4799 46.9181 31.238 44.1822 34.6789 43.7946Z" fill="url(#paint23_linear_131_2345)"/>
<path d="M26.5153 40.4494C29.9581 40.0619 32.9993 41.8527 32.9993 41.8527C32.9993 41.8527 30.3387 45.8812 27.0566 44.9705C23.1777 43.8956 20.3584 43.867 20.3584 43.867C20.3163 43.5749 23.0744 40.8389 26.5153 40.4514V40.4494Z" fill="url(#paint24_linear_131_2345)"/>
<path d="M18.8782 37.8835C20.087 37.748 21.2366 37.9465 22.1623 38.2215C21.4355 37.7098 20.6302 36.9824 20.0622 36.0182C18.7616 33.8149 19.3009 30.9301 19.5094 30.8193C19.5094 30.8193 20.8005 32.4651 23.2487 34.2483C24.9988 35.5218 24.2586 38.1604 23.9832 38.9546C24.1687 39.052 24.2701 39.1131 24.2701 39.1131C24.2701 39.1131 22.0724 42.5726 19.3411 41.7765C16.1144 40.8371 13.7695 40.8027 13.7695 40.8027C13.7331 40.5507 16.015 38.2043 18.8744 37.8835H18.8782Z" fill="url(#paint25_linear_131_2345)"/>
<path d="M12.4631 34.5653C13.6375 34.4335 14.7526 34.6397 15.6343 34.9108C15.0567 34.1739 14.4465 33.1639 14.1883 31.9706C13.6356 29.4199 15.0988 26.7641 15.3398 26.7202C15.3398 26.7202 16.0647 28.723 17.8798 31.2165C18.9834 32.7324 17.9984 34.6646 17.3576 35.6306C17.4494 35.6803 17.4992 35.7127 17.4992 35.7127C17.4992 35.7127 15.4488 38.9432 12.8973 38.2005C9.8848 37.3241 7.6967 37.2917 7.6967 37.2917C7.66227 37.0568 9.79299 34.8669 12.4631 34.5653Z" fill="url(#paint26_linear_131_2345)"/>
<path d="M8.54002 31.4416C9.74692 31.432 10.8333 31.8272 11.5907 32.2015C11.1336 31.4912 10.5789 30.3858 10.5082 29.1142C10.3877 26.9071 11.9714 24.87 12.1779 24.8643C12.1779 24.8643 12.5165 26.6322 13.6985 28.95C14.4751 30.4717 13.1515 32.0888 12.5184 32.738C12.6159 32.8048 12.6733 32.8468 12.6733 32.8468C12.6733 32.8468 10.6459 35.388 8.56489 34.5403C6.1071 33.5379 4.2671 33.3184 4.2671 33.3184C4.26136 33.116 6.2582 31.4588 8.5362 31.4378L8.54002 31.4416Z" fill="url(#paint27_linear_131_2345)"/>
<path d="M5.74381 27.8581C6.58922 27.9936 7.32177 28.3564 7.87645 28.7172C7.59911 28.112 7.34472 27.3177 7.36385 26.449C7.40402 24.5761 8.87486 22.9513 9.05083 22.957C9.05083 22.957 9.22297 24.473 10.0722 26.5044C10.602 27.7721 9.52326 28.996 8.92077 29.5535C8.96285 29.5955 8.9858 29.6203 8.9858 29.6203C8.9858 29.6203 6.90863 31.4551 5.30007 30.4508C3.39887 29.2652 1.89551 28.8203 1.89551 28.8203C1.92037 28.6504 3.83879 27.5507 5.74381 27.8561V27.8581Z" fill="url(#paint28_linear_131_2345)"/>
<path d="M6.08592 25.8133C6.10505 25.8343 6.11844 25.8477 6.11844 25.8477C6.11844 25.8477 4.36834 27.5297 2.99886 26.6629C1.38265 25.6396 0.10498 25.273 0.10498 25.273C0.12602 25.1202 1.74606 24.0988 3.36227 24.3356C4.24975 24.4654 4.99378 24.9102 5.48343 25.2825C5.25199 24.746 5.01482 23.9499 5.12576 23.106C5.32467 21.5996 6.72093 20.4197 6.87012 20.4407C6.87012 20.4407 6.88351 21.6779 7.43244 23.3905C7.79585 24.5246 6.61764 25.4582 6.08592 25.8133Z" fill="url(#paint29_linear_131_2345)"/>
<path d="M35.193 48.4036C31.3734 47.3439 28.5484 47.3038 28.5197 47.3019H28.4374L28.426 47.2218C28.4183 47.1702 28.4317 47.0919 28.5905 46.8934C29.279 46.0304 31.7655 44.0276 34.667 43.7011C35.6138 43.5942 36.6141 43.6419 37.6489 43.8405C36.9278 43.3288 36.3081 42.756 35.8012 42.1317C33.9918 39.9056 33.7011 36.782 33.8446 35.6995C33.8771 35.4532 33.9249 35.3864 33.9689 35.3558L34.0358 35.3081L34.0951 35.3635C34.1143 35.3826 36.1379 37.2956 39.6075 39.1743C42.6161 40.8048 41.5814 45.5149 41.5699 45.5626L41.5488 45.6562L41.4532 45.6333C41.4532 45.6333 41.2983 45.5951 41.0477 45.5168C40.4223 46.3473 38.5498 48.5391 36.2029 48.5391C35.8739 48.5391 35.5373 48.4971 35.193 48.4017V48.4036ZM41.042 45.3201C41.2007 45.3717 41.3251 45.4061 41.4035 45.429C41.5316 44.7588 42.1666 40.7762 39.5137 39.3404C36.4477 37.6794 34.5006 35.9897 34.0569 35.5888C33.8981 36.2169 34.0186 39.6383 35.9523 42.0191C36.5376 42.7389 37.2778 43.3918 38.1538 43.957L38.6071 44.2491L38.0773 44.125C36.8972 43.8462 35.7553 43.766 34.6881 43.8863C31.5723 44.2376 28.9787 46.586 28.6497 47.1206C29.2465 47.1416 31.8592 47.2867 35.2447 48.2241C37.9874 48.984 40.2922 46.2194 40.933 45.3545L40.975 45.2991L41.042 45.3201Z" fill="url(#paint30_linear_131_2345)"/>
<path d="M27.0299 45.0582C23.2103 43.9986 20.3853 43.9585 20.3566 43.9566H20.2744L20.2629 43.8764C20.2552 43.8249 20.2686 43.7466 20.4274 43.548C21.1159 42.6851 23.6024 40.6823 26.5058 40.3539C29.9429 39.9663 33.0204 41.7514 33.051 41.7686L33.1352 41.8183L33.0816 41.8985C33.074 41.908 32.3969 42.9275 31.322 43.8191C30.2298 44.726 29.1071 45.19 28.0245 45.19C27.6879 45.19 27.3551 45.1442 27.0299 45.0544V45.0582ZM26.5269 40.541C23.4111 40.8923 20.8176 43.2426 20.4886 43.7752C21.0853 43.7962 23.698 43.9413 27.0835 44.8788C30.0022 45.6864 32.4638 42.4426 32.8636 41.8813C32.3433 41.5987 29.5776 40.1973 26.5269 40.541Z" fill="url(#paint31_linear_131_2345)"/>
<path d="M19.3179 41.8659C16.1428 40.9418 13.796 40.896 13.773 40.896H13.6908L13.6793 40.8158C13.6716 40.7661 13.687 40.6898 13.8419 40.4931C14.4539 39.7275 16.4871 38.0588 18.8684 37.7896C19.7693 37.6885 20.7237 37.7591 21.7125 38.0016C20.9781 37.4231 20.3966 36.772 19.9797 36.0637C18.8952 34.2251 19.0577 31.8786 19.3045 31.0309C19.3695 30.8114 19.4212 30.7598 19.4632 30.7369L19.5359 30.6987L19.5856 30.7617C19.599 30.7789 20.8958 32.417 23.3077 34.1735C25.0559 35.447 24.3941 38.0302 24.1015 38.9085C24.2449 38.9848 24.3233 39.0326 24.3233 39.0326L24.4037 39.0822L24.3539 39.1605C24.3348 39.191 22.5293 41.9861 20.1614 41.9861C19.8859 41.9861 19.6048 41.948 19.316 41.864L19.3179 41.8659ZM23.9408 39.0364L23.87 38.9982L23.8949 38.9237C24.1589 38.1562 24.8914 35.5597 23.193 34.3225C21.11 32.8046 19.8458 31.3689 19.5187 30.9794C19.3102 31.4987 18.9774 33.9922 20.1461 35.972C20.6223 36.7797 21.3204 37.5109 22.2194 38.1448L22.6842 38.4712L22.1352 38.309C21.001 37.9729 19.9108 37.8603 18.8894 37.9748C16.3092 38.265 14.2034 40.2354 13.9031 40.7127C14.4386 40.7356 16.5923 40.8769 19.3714 41.6864C21.7718 42.3833 23.7878 39.6473 24.1378 39.1414C24.09 39.1147 24.0231 39.0784 23.9389 39.0345L23.9408 39.0364Z" fill="url(#paint32_linear_131_2345)"/>
<path d="M12.8722 38.2902C9.90752 37.4273 7.71942 37.3852 7.69647 37.3852H7.61422L7.60274 37.3051C7.59509 37.2573 7.60848 37.1848 7.75576 36.9996C8.32765 36.2836 10.2269 34.7238 12.4533 34.4737C13.379 34.3706 14.366 34.4603 15.3873 34.7429C14.7332 33.8532 14.299 32.9291 14.0944 31.9916C13.6334 29.8648 14.5534 27.6214 15.0717 26.8692C15.2056 26.6744 15.2726 26.6401 15.3223 26.6305L15.4026 26.6152L15.4294 26.6897C15.4371 26.7088 16.1715 28.7097 17.9561 31.1649C19.0539 32.6732 18.1645 34.5596 17.4913 35.6001C17.5295 35.623 17.5506 35.6345 17.5506 35.6345L17.6309 35.6841L17.5812 35.7624C17.5621 35.791 15.8751 38.4029 13.6602 38.4029C13.4039 38.4029 13.1399 38.3685 12.8703 38.2902H12.8722ZM17.3115 35.7128L17.2235 35.665L17.279 35.5829C17.9312 34.5997 18.8646 32.7343 17.803 31.2738C16.2576 29.1488 15.4906 27.356 15.2994 26.8787C14.934 27.3197 13.7941 29.7006 14.2837 31.9535C14.4979 32.9425 14.978 33.9181 15.7125 34.8555L15.8961 35.0903L15.6073 35.0006C14.5132 34.6627 13.4594 34.5462 12.4762 34.6589C10.1026 34.9261 8.12873 36.7514 7.83227 37.2039C8.3506 37.2268 10.3513 37.3623 12.9276 38.1127C15.1578 38.7599 17.0303 36.2302 17.367 35.7452C17.3517 35.7357 17.3325 35.7261 17.3115 35.7147V35.7128Z" fill="url(#paint33_linear_131_2345)"/>
<path d="M8.53238 34.6279C6.11667 33.6428 4.27859 33.4156 4.25946 33.4137L4.17722 33.4041V33.3239C4.17339 33.28 4.19061 33.2151 4.33597 33.07C4.88491 32.5163 6.63501 31.3651 8.53812 31.3479C9.63217 31.3345 10.6268 31.661 11.3421 31.9817C10.9213 31.2677 10.4737 30.2596 10.4125 29.1198C10.3112 27.2755 11.388 25.5094 11.9236 24.9443C12.0651 24.7954 12.1301 24.7744 12.176 24.7725H12.2583L12.2736 24.8488C12.2774 24.866 12.6236 26.634 13.7865 28.9117C14.5631 30.4314 13.3198 32.0333 12.6657 32.7263C12.7097 32.7588 12.7345 32.776 12.7345 32.776L12.8091 32.8333L12.7498 32.9058C12.6772 32.9956 11.2063 34.8112 9.46003 34.8112C9.15592 34.8112 8.84415 34.7559 8.53047 34.6279H8.53238ZM12.4687 32.8161L12.3788 32.755L12.4553 32.6767C13.0559 32.06 14.3718 30.4696 13.6182 28.9938C12.6274 27.054 12.2219 25.477 12.1187 25.0188C11.7342 25.3796 10.5044 27.1915 10.6095 29.1122C10.6784 30.3646 11.2273 31.4567 11.6768 32.1536L11.8604 32.4381L11.5506 32.2853C10.8563 31.9417 9.78136 31.535 8.58976 31.535C8.57446 31.535 8.55916 31.535 8.54386 31.535C6.54511 31.5522 4.74337 32.8772 4.41822 33.2476C4.88682 33.3182 6.53937 33.6122 8.60698 34.4561C10.3992 35.1874 12.1875 33.2705 12.5394 32.8657C12.5184 32.8504 12.4954 32.8352 12.4668 32.8161H12.4687Z" fill="url(#paint34_linear_131_2345)"/>
<path d="M5.24816 30.5289C3.3833 29.3643 1.88376 28.9137 1.86846 28.9099L1.79004 28.887L1.80152 28.8087C1.80725 28.7667 1.83403 28.7132 1.97939 28.6101C2.52259 28.2245 4.16367 27.5085 5.75884 27.7662C6.39959 27.8693 7.04034 28.108 7.66769 28.4784C7.38653 27.7834 7.25264 27.1018 7.26603 26.447C7.30046 24.8776 8.32757 23.4456 8.81913 22.9989C8.9511 22.8786 9.01039 22.8652 9.05438 22.8652L9.13663 22.8691L9.14619 22.9492C9.14619 22.9645 9.32598 24.4747 10.1618 26.4718C10.6878 27.7281 9.72765 28.9213 9.0563 29.559L9.12133 29.6278L9.05056 29.6908C8.98362 29.7499 7.71934 30.8497 6.38429 30.8497C6.00367 30.8497 5.61539 30.7599 5.24816 30.5308V30.5289ZM8.7847 29.5495L8.85547 29.4846C9.49239 28.8984 10.4851 27.7357 9.98395 26.5386C9.28582 24.8718 9.041 23.5335 8.97596 23.1096C8.60873 23.4227 7.49555 24.8489 7.46112 26.4508C7.44582 27.1648 7.61414 27.9152 7.96607 28.6789L8.10187 28.9748L7.82645 28.7953C7.13979 28.3486 6.43593 28.0641 5.73207 27.9495C4.08525 27.6842 2.41548 28.5051 2.05973 28.7743C2.46904 28.9118 3.78687 29.3929 5.35718 30.3724C6.71709 31.222 8.47293 29.9199 8.85164 29.6125L8.78852 29.5495H8.7847Z" fill="url(#paint35_linear_131_2345)"/>
<path d="M2.94743 26.7411C1.36183 25.7388 0.0918085 25.3646 0.0784197 25.3607L0 25.3378L0.00956338 25.2596C0.0153014 25.2176 0.0420789 25.1622 0.200831 25.0457C0.602493 24.7517 1.95667 24.0338 3.37587 24.2419C4.14094 24.3546 4.79891 24.6944 5.27516 25.0171C5.08963 24.4997 4.93471 23.8143 5.03034 23.0926C5.20439 21.7695 6.24106 20.7461 6.62742 20.4635C6.78044 20.3509 6.84164 20.3394 6.88372 20.3471L6.96406 20.3585V20.4387C6.96406 20.4502 6.9851 21.6816 7.52256 23.3618C7.88405 24.4959 6.80339 25.4257 6.22767 25.8266L6.24871 25.8495L6.18368 25.9106C6.1263 25.966 5.02843 27.0046 3.87317 27.0046C3.5614 27.0046 3.24581 26.9282 2.94552 26.7392L2.94743 26.7411ZM5.94077 25.7961L6.03258 25.735C6.54135 25.397 7.68513 24.494 7.34085 23.4171C6.90285 22.0444 6.80339 20.9638 6.78044 20.5857C6.43998 20.8244 5.39184 21.821 5.22161 23.1155C5.11258 23.946 5.35167 24.7326 5.57163 25.2443L5.71316 25.5746L5.42435 25.355C4.96148 25.0018 4.2251 24.555 3.34718 24.4252C1.97771 24.2267 0.579541 24.9732 0.262037 25.2233C0.629271 25.3455 1.7348 25.7521 3.05072 26.5846C4.19259 27.3063 5.65387 26.1283 5.98285 25.8419L5.93886 25.7961H5.94077Z" fill="url(#paint36_linear_131_2345)"/>
<path d="M3.73708 22.0747C4.26306 23.0751 4.84069 24.0469 5.46805 24.9863C6.08967 25.9295 6.77632 26.8306 7.50122 27.6993C8.92808 29.4405 10.5959 31.0157 12.4015 32.3846C13.3043 33.07 14.2434 33.7077 15.217 34.29C18.1147 36.0236 21.3853 37.3028 24.6216 38.3834C26.804 39.1089 29.0246 39.7466 31.2414 40.4358C31.5187 40.5218 31.7941 40.6115 32.0715 40.7012C34.0128 41.3294 35.9427 42.0339 37.7865 42.9026C38.8443 43.4009 39.8962 43.9298 40.8985 44.5235C41.9122 45.1078 42.8838 45.7664 43.8134 46.4709L44.5019 47.0113C46.057 48.2332 47.4934 49.8369 48.5645 51.5037C48.509 51.582 48.1705 51.7252 48.1054 51.6564C46.7914 50.2474 45.5252 48.827 43.9492 47.7062L43.2396 47.2423C42.2871 46.6409 41.3135 46.07 40.3036 45.5641C39.2899 45.0562 38.2628 44.556 37.2089 44.1283C36.1646 43.6777 35.1011 43.2692 34.03 42.8682L33.2267 42.5685L32.4196 42.2764C31.8802 42.0816 31.3389 41.8869 30.7957 41.6979C28.6267 40.9284 26.4329 40.1857 24.2486 39.3972C22.6095 38.8054 20.9741 38.1639 19.3923 37.4403L18.9945 37.2589C17.801 36.7109 16.6457 36.0885 15.5211 35.4165L14.7809 34.9525C13.8016 34.3225 12.8605 33.639 11.9616 32.9077C9.30105 30.7064 6.98671 28.0678 5.21749 25.1371C4.62838 24.1615 4.09283 23.1592 3.61084 22.132L3.73708 22.0747Z" fill="url(#paint37_linear_131_2345)"/>
<path d="M48.033 51.7196L47.6715 51.332C46.4588 50.0261 45.3131 48.7946 43.892 47.7846L43.1843 47.3226C42.1266 46.6544 41.1684 46.1064 40.256 45.6501C39.1218 45.0831 38.1636 44.621 37.1671 44.2163C36.0768 43.7466 34.9503 43.3151 33.9939 42.9581L33.1906 42.6583L32.2553 42.3204C31.758 42.1409 31.2607 41.9634 30.7596 41.7877C29.8358 41.4593 28.9081 41.1367 27.9786 40.814C26.743 40.3844 25.4653 39.9396 24.2106 39.4871C22.3553 38.8169 20.7659 38.1773 19.3466 37.5263C19.0808 37.4041 18.9871 37.3621 18.9507 37.343C17.8261 36.8294 16.688 36.2242 15.4658 35.4968L14.7256 35.0328C13.7578 34.4104 12.8072 33.7212 11.8968 32.9804C9.16738 30.7218 6.89321 28.1004 5.13164 25.1869C4.54445 24.2132 4.00125 23.1994 3.52116 22.1741L3.48291 22.0901L3.77746 21.9526L3.81954 22.0328C4.3417 23.0256 4.92124 24.0012 5.54669 24.9368C6.12432 25.8131 6.7861 26.699 7.57412 27.6422C8.95699 29.3299 10.6 30.9012 12.4572 32.3122C13.3638 33.0014 14.3067 33.6391 15.2631 34.2119C18.4859 36.1402 22.164 37.4652 24.6486 38.2957C26.0754 38.7711 27.5444 39.216 28.9674 39.6455C29.7325 39.8766 30.4995 40.1095 31.2664 40.3481C31.5074 40.4226 31.7465 40.5009 31.9856 40.5792L32.0965 40.6154C34.3669 41.3505 36.1859 42.0512 37.8231 42.8206C39.0663 43.4067 40.059 43.9241 40.9427 44.4454C41.9009 44.9971 42.886 45.6539 43.8691 46.3985L44.5576 46.9388C46.0954 48.1474 47.5452 49.7511 48.6412 51.4542L48.6737 51.5057L48.6374 51.5554C48.5704 51.6489 48.316 51.7577 48.1822 51.7654C48.1745 51.7654 48.1688 51.7654 48.1611 51.7654C48.1037 51.7654 48.0597 51.7482 48.0291 51.7157L48.033 51.7196ZM44.441 47.0858L43.7543 46.5455C42.7769 45.8047 41.7996 45.1537 40.849 44.6057C39.9691 44.0864 38.9822 43.5709 37.7447 42.9886C36.117 42.2211 34.3038 41.5242 32.043 40.793L31.9321 40.7567C31.693 40.6784 31.4539 40.6021 31.2148 40.5276C30.4478 40.289 29.6828 40.0579 28.9177 39.825C27.4947 39.3935 26.0238 38.9487 24.5931 38.4733C22.099 37.6408 18.4094 36.3101 15.1694 34.3722C14.2073 33.7956 13.2567 33.1541 12.3443 32.4611C10.4737 31.0406 8.82119 29.4598 7.42876 27.7605C6.63691 26.8136 5.9713 25.9219 5.38985 25.0399C4.97671 24.4213 4.5827 23.7855 4.21355 23.1383C4.55401 23.8027 4.91933 24.4556 5.30378 25.0933C7.05196 27.9877 9.31466 30.5938 12.0268 32.8391C12.9296 33.5742 13.8764 34.2596 14.8366 34.8763L15.5749 35.3402C16.7875 36.0638 17.9217 36.6652 19.0387 37.1769C19.0502 37.1826 19.4346 37.3583 19.4346 37.3583C20.8481 38.0055 22.4337 38.6451 24.2833 39.3114C25.538 39.7639 26.8137 40.2088 28.0493 40.6364C28.9789 40.9591 29.9065 41.2818 30.8304 41.6101C31.3315 41.7839 31.8307 41.9634 32.328 42.1428L34.0666 42.7805C35.0268 43.1395 36.1552 43.5709 37.2474 44.0425C38.2477 44.4492 39.2117 44.9112 40.3497 45.4821C41.2678 45.9422 42.2318 46.4921 43.2953 47.166L44.0087 47.6319C45.4489 48.6552 46.6539 49.9535 47.8187 51.2079L48.1688 51.584C48.23 51.5802 48.3658 51.5325 48.4423 51.4866C47.3616 49.8256 45.9443 48.2657 44.4448 47.0858H44.441Z" fill="url(#paint38_linear_131_2345)"/>
<path d="M1.92975 21.7732C0.925594 20.4043 0.91603 18.5848 1.02697 18.5122C1.02697 18.5122 1.41906 19.1499 3.04866 20.2439C4.4277 21.1699 4.52334 23.7187 4.52334 23.7187C4.52334 23.7187 2.9339 23.1421 1.92975 21.7732Z" fill="url(#paint39_linear_131_2345)"/>
<path d="M4.48896 23.8065C4.42201 23.7816 2.86127 23.2051 1.85138 21.8266C0.906514 20.5398 0.837657 18.915 0.902688 18.5713C0.916077 18.4988 0.937116 18.4587 0.973457 18.4358L1.05762 18.3823L1.10926 18.4663C1.10926 18.4663 1.51857 19.1059 3.10227 20.1694C4.50426 21.1106 4.61519 23.6117 4.61902 23.7167L4.62476 23.8561L4.49087 23.8065H4.48896ZM2.0063 21.7197C2.80963 22.8156 4.01079 23.3998 4.41628 23.5755C4.37037 23.0256 4.12746 21.0839 2.99324 20.3221C1.83416 19.5451 1.29479 18.9952 1.07483 18.7336C1.04805 19.2243 1.20489 20.6257 2.00822 21.7197H2.0063Z" fill="url(#paint40_linear_131_2345)"/>
</g>
<defs>
<linearGradient id="paint0_linear_131_2345" x1="30.9478" y1="4.50397" x2="51.3427" y2="29.1627" gradientUnits="userSpaceOnUse">
<stop stop-color="#F7AA00"/>
<stop offset="0.35" stop-color="#F9DB00"/>
<stop offset="0.73" stop-color="#ED9700"/>
<stop offset="1" stop-color="#F7AA00"/>
</linearGradient>
<linearGradient id="paint1_linear_131_2345" x1="25.7845" y1="33.6861" x2="32.2498" y2="39.8606" gradientUnits="userSpaceOnUse">
<stop stop-color="#F7AA00"/>
<stop offset="0.35" stop-color="#F9DB00"/>
<stop offset="0.73" stop-color="#ED9700"/>
<stop offset="1" stop-color="#F7AA00"/>
</linearGradient>
<linearGradient id="paint2_linear_131_2345" x1="25.7174" y1="33.5968" x2="32.3421" y2="39.9037" gradientUnits="userSpaceOnUse">
<stop stop-color="#F7AA00"/>
<stop offset="0.35" stop-color="#F9DB00"/>
<stop offset="0.73" stop-color="#ED9700"/>
<stop offset="1" stop-color="#F7AA00"/>
</linearGradient>
<linearGradient id="paint3_linear_131_2345" x1="55.034" y1="33.919" x2="61.4993" y2="40.0935" gradientUnits="userSpaceOnUse">
<stop stop-color="#F7AA00"/>
<stop offset="0.35" stop-color="#F9DB00"/>
<stop offset="0.73" stop-color="#ED9700"/>
<stop offset="1" stop-color="#F7AA00"/>
</linearGradient>
<linearGradient id="paint4_linear_131_2345" x1="54.9688" y1="33.8297" x2="61.5935" y2="40.136" gradientUnits="userSpaceOnUse">
<stop stop-color="#F7AA00"/>
<stop offset="0.35" stop-color="#F9DB00"/>
<stop offset="0.73" stop-color="#ED9700"/>
<stop offset="1" stop-color="#F7AA00"/>
</linearGradient>
<linearGradient id="paint5_linear_131_2345" x1="47.2619" y1="37.5742" x2="56.4639" y2="46.8661" gradientUnits="userSpaceOnUse">
<stop stop-color="#F7AA00"/>
<stop offset="0.35" stop-color="#F9DB00"/>
<stop offset="0.73" stop-color="#ED9700"/>
<stop offset="1" stop-color="#F7AA00"/>
</linearGradient>
<linearGradient id="paint6_linear_131_2345" x1="55.8518" y1="41.3177" x2="58.031" y2="47.1667" gradientUnits="userSpaceOnUse">
<stop stop-color="#F7AA00"/>
<stop offset="0.35" stop-color="#F9DB00"/>
<stop offset="0.73" stop-color="#ED9700"/>
<stop offset="1" stop-color="#F7AA00"/>
</linearGradient>
<linearGradient id="paint7_linear_131_2345" x1="64.1778" y1="32.6754" x2="72.0024" y2="40.1683" gradientUnits="userSpaceOnUse">
<stop stop-color="#F7AA00"/>
<stop offset="0.35" stop-color="#F9DB00"/>
<stop offset="0.73" stop-color="#ED9700"/>
<stop offset="1" stop-color="#F7AA00"/>
</linearGradient>
<linearGradient id="paint8_linear_131_2345" x1="70.1868" y1="28.6518" x2="78.3557" y2="36.1794" gradientUnits="userSpaceOnUse">
<stop stop-color="#F7AA00"/>
<stop offset="0.35" stop-color="#F9DB00"/>
<stop offset="0.73" stop-color="#ED9700"/>
<stop offset="1" stop-color="#F7AA00"/>
</linearGradient>
<linearGradient id="paint9_linear_131_2345" x1="74.4799" y1="26.5406" x2="81.4431" y2="33.3763" gradientUnits="userSpaceOnUse">
<stop stop-color="#F7AA00"/>
<stop offset="0.35" stop-color="#F9DB00"/>
<stop offset="0.73" stop-color="#ED9700"/>
<stop offset="1" stop-color="#F7AA00"/>
</linearGradient>
<linearGradient id="paint10_linear_131_2345" x1="78.0039" y1="24.3322" x2="83.5036" y2="30.202" gradientUnits="userSpaceOnUse">
<stop stop-color="#F7AA00"/>
<stop offset="0.35" stop-color="#F9DB00"/>
<stop offset="0.73" stop-color="#ED9700"/>
<stop offset="1" stop-color="#F7AA00"/>
</linearGradient>
<linearGradient id="paint11_linear_131_2345" x1="80.5821" y1="21.6216" x2="85.117" y2="26.8049" gradientUnits="userSpaceOnUse">
<stop stop-color="#F7AA00"/>
<stop offset="0.35" stop-color="#F9DB00"/>
<stop offset="0.73" stop-color="#ED9700"/>
<stop offset="1" stop-color="#F7AA00"/>
</linearGradient>
<linearGradient id="paint12_linear_131_2345" x1="47.2006" y1="37.4845" x2="56.5589" y2="46.9075" gradientUnits="userSpaceOnUse">
<stop stop-color="#F7AA00"/>
<stop offset="0.35" stop-color="#F9DB00"/>
<stop offset="0.73" stop-color="#ED9700"/>
<stop offset="1" stop-color="#F7AA00"/>
</linearGradient>
<linearGradient id="paint13_linear_131_2345" x1="55.75" y1="41.253" x2="58.0497" y2="47.3011" gradientUnits="userSpaceOnUse">
<stop stop-color="#F7AA00"/>
<stop offset="0.35" stop-color="#F9DB00"/>
<stop offset="0.73" stop-color="#ED9700"/>
<stop offset="1" stop-color="#F7AA00"/>
</linearGradient>
<linearGradient id="paint14_linear_131_2345" x1="64.1099" y1="32.5866" x2="72.0846" y2="40.2107" gradientUnits="userSpaceOnUse">
<stop stop-color="#F7AA00"/>
<stop offset="0.35" stop-color="#F9DB00"/>
<stop offset="0.73" stop-color="#ED9700"/>
<stop offset="1" stop-color="#F7AA00"/>
</linearGradient>
<linearGradient id="paint15_linear_131_2345" x1="70.1191" y1="28.5776" x2="78.427" y2="36.2404" gradientUnits="userSpaceOnUse">
<stop stop-color="#F7AA00"/>
<stop offset="0.35" stop-color="#F9DB00"/>
<stop offset="0.73" stop-color="#ED9700"/>
<stop offset="1" stop-color="#F7AA00"/>
</linearGradient>
<linearGradient id="paint16_linear_131_2345" x1="74.4081" y1="26.4754" x2="81.5067" y2="33.4452" gradientUnits="userSpaceOnUse">
<stop stop-color="#F7AA00"/>
<stop offset="0.35" stop-color="#F9DB00"/>
<stop offset="0.73" stop-color="#ED9700"/>
<stop offset="1" stop-color="#F7AA00"/>
</linearGradient>
<linearGradient id="paint17_linear_131_2345" x1="77.9347" y1="24.2668" x2="83.5686" y2="30.2808" gradientUnits="userSpaceOnUse">
<stop stop-color="#F7AA00"/>
<stop offset="0.35" stop-color="#F9DB00"/>
<stop offset="0.73" stop-color="#ED9700"/>
<stop offset="1" stop-color="#F7AA00"/>
</linearGradient>
<linearGradient id="paint18_linear_131_2345" x1="80.5161" y1="21.5582" x2="85.1858" y2="26.8851" gradientUnits="userSpaceOnUse">
<stop stop-color="#F7AA00"/>
<stop offset="0.35" stop-color="#F9DB00"/>
<stop offset="0.73" stop-color="#ED9700"/>
<stop offset="1" stop-color="#F7AA00"/>
</linearGradient>
<linearGradient id="paint19_linear_131_2345" x1="45.0206" y1="26.6455" x2="64.2474" y2="55.8466" gradientUnits="userSpaceOnUse">
<stop stop-color="#F7AA00"/>
<stop offset="0.35" stop-color="#F9DB00"/>
<stop offset="0.73" stop-color="#ED9700"/>
<stop offset="1" stop-color="#F7AA00"/>
</linearGradient>
<linearGradient id="paint20_linear_131_2345" x1="44.9403" y1="26.5574" x2="64.3254" y2="55.9361" gradientUnits="userSpaceOnUse">
<stop stop-color="#F7AA00"/>
<stop offset="0.35" stop-color="#F9DB00"/>
<stop offset="0.73" stop-color="#ED9700"/>
<stop offset="1" stop-color="#F7AA00"/>
</linearGradient>
<linearGradient id="paint21_linear_131_2345" x1="82.9974" y1="19.5081" x2="86.4222" y2="21.8389" gradientUnits="userSpaceOnUse">
<stop stop-color="#F7AA00"/>
<stop offset="0.35" stop-color="#F9DB00"/>
<stop offset="0.73" stop-color="#ED9700"/>
<stop offset="1" stop-color="#F7AA00"/>
</linearGradient>
<linearGradient id="paint22_linear_131_2345" x1="82.9247" y1="19.4174" x2="86.5305" y2="21.8811" gradientUnits="userSpaceOnUse">
<stop stop-color="#F7AA00"/>
<stop offset="0.35" stop-color="#F9DB00"/>
<stop offset="0.73" stop-color="#ED9700"/>
<stop offset="1" stop-color="#F7AA00"/>
</linearGradient>
<linearGradient id="paint23_linear_131_2345" x1="30.446" y1="37.3413" x2="39.648" y2="46.6332" gradientUnits="userSpaceOnUse">
<stop stop-color="#F7AA00"/>
<stop offset="0.35" stop-color="#F9DB00"/>
<stop offset="0.73" stop-color="#ED9700"/>
<stop offset="1" stop-color="#F7AA00"/>
</linearGradient>
<linearGradient id="paint24_linear_131_2345" x1="22.2092" y1="41.0848" x2="24.3885" y2="46.9338" gradientUnits="userSpaceOnUse">
<stop stop-color="#F7AA00"/>
<stop offset="0.35" stop-color="#F9DB00"/>
<stop offset="0.73" stop-color="#ED9700"/>
<stop offset="1" stop-color="#F7AA00"/>
</linearGradient>
<linearGradient id="paint25_linear_131_2345" x1="15.3223" y1="32.4425" x2="23.147" y2="39.9354" gradientUnits="userSpaceOnUse">
<stop stop-color="#F7AA00"/>
<stop offset="0.35" stop-color="#F9DB00"/>
<stop offset="0.73" stop-color="#ED9700"/>
<stop offset="1" stop-color="#F7AA00"/>
</linearGradient>
<linearGradient id="paint26_linear_131_2345" x1="9.26052" y1="28.4189" x2="17.4294" y2="35.9465" gradientUnits="userSpaceOnUse">
<stop stop-color="#F7AA00"/>
<stop offset="0.35" stop-color="#F9DB00"/>
<stop offset="0.73" stop-color="#ED9700"/>
<stop offset="1" stop-color="#F7AA00"/>
</linearGradient>
<linearGradient id="paint27_linear_131_2345" x1="5.68305" y1="26.3076" x2="12.6462" y2="33.1433" gradientUnits="userSpaceOnUse">
<stop stop-color="#F7AA00"/>
<stop offset="0.35" stop-color="#F9DB00"/>
<stop offset="0.73" stop-color="#ED9700"/>
<stop offset="1" stop-color="#F7AA00"/>
</linearGradient>
<linearGradient id="paint28_linear_131_2345" x1="3.11377" y1="24.0993" x2="8.61348" y2="29.9691" gradientUnits="userSpaceOnUse">
<stop stop-color="#F7AA00"/>
<stop offset="0.35" stop-color="#F9DB00"/>
<stop offset="0.73" stop-color="#ED9700"/>
<stop offset="1" stop-color="#F7AA00"/>
</linearGradient>
<linearGradient id="paint29_linear_131_2345" x1="1.18808" y1="21.3887" x2="5.72297" y2="26.572" gradientUnits="userSpaceOnUse">
<stop stop-color="#F7AA00"/>
<stop offset="0.35" stop-color="#F9DB00"/>
<stop offset="0.73" stop-color="#ED9700"/>
<stop offset="1" stop-color="#F7AA00"/>
</linearGradient>
<linearGradient id="paint30_linear_131_2345" x1="30.3759" y1="37.2471" x2="39.7314" y2="46.6701" gradientUnits="userSpaceOnUse">
<stop stop-color="#F7AA00"/>
<stop offset="0.35" stop-color="#F9DB00"/>
<stop offset="0.73" stop-color="#ED9700"/>
<stop offset="1" stop-color="#F7AA00"/>
</linearGradient>
<linearGradient id="paint31_linear_131_2345" x1="22.1466" y1="41.0156" x2="24.4431" y2="47.0603" gradientUnits="userSpaceOnUse">
<stop stop-color="#F7AA00"/>
<stop offset="0.35" stop-color="#F9DB00"/>
<stop offset="0.73" stop-color="#ED9700"/>
<stop offset="1" stop-color="#F7AA00"/>
</linearGradient>
<linearGradient id="paint32_linear_131_2345" x1="15.2583" y1="32.3529" x2="23.2317" y2="39.977" gradientUnits="userSpaceOnUse">
<stop stop-color="#F7AA00"/>
<stop offset="0.35" stop-color="#F9DB00"/>
<stop offset="0.73" stop-color="#ED9700"/>
<stop offset="1" stop-color="#F7AA00"/>
</linearGradient>
<linearGradient id="paint33_linear_131_2345" x1="9.19328" y1="28.3427" x2="17.5012" y2="36.0055" gradientUnits="userSpaceOnUse">
<stop stop-color="#F7AA00"/>
<stop offset="0.35" stop-color="#F9DB00"/>
<stop offset="0.73" stop-color="#ED9700"/>
<stop offset="1" stop-color="#F7AA00"/>
</linearGradient>
<linearGradient id="paint34_linear_131_2345" x1="5.62026" y1="26.2436" x2="12.7176" y2="33.2123" gradientUnits="userSpaceOnUse">
<stop stop-color="#F7AA00"/>
<stop offset="0.35" stop-color="#F9DB00"/>
<stop offset="0.73" stop-color="#ED9700"/>
<stop offset="1" stop-color="#F7AA00"/>
</linearGradient>
<linearGradient id="paint35_linear_131_2345" x1="3.03824" y1="24.0353" x2="8.67207" y2="30.0494" gradientUnits="userSpaceOnUse">
<stop stop-color="#F7AA00"/>
<stop offset="0.35" stop-color="#F9DB00"/>
<stop offset="0.73" stop-color="#ED9700"/>
<stop offset="1" stop-color="#F7AA00"/>
</linearGradient>
<linearGradient id="paint36_linear_131_2345" x1="1.11225" y1="21.3211" x2="5.78075" y2="26.6455" gradientUnits="userSpaceOnUse">
<stop stop-color="#F7AA00"/>
<stop offset="0.35" stop-color="#F9DB00"/>
<stop offset="0.73" stop-color="#ED9700"/>
<stop offset="1" stop-color="#F7AA00"/>
</linearGradient>
<linearGradient id="paint37_linear_131_2345" x1="10.1941" y1="26.4126" x2="29.4212" y2="55.6129" gradientUnits="userSpaceOnUse">
<stop stop-color="#F7AA00"/>
<stop offset="0.35" stop-color="#F9DB00"/>
<stop offset="0.73" stop-color="#ED9700"/>
<stop offset="1" stop-color="#F7AA00"/>
</linearGradient>
<linearGradient id="paint38_linear_131_2345" x1="10.101" y1="26.3217" x2="29.4809" y2="55.6982" gradientUnits="userSpaceOnUse">
<stop stop-color="#F7AA00"/>
<stop offset="0.35" stop-color="#F9DB00"/>
<stop offset="0.73" stop-color="#ED9700"/>
<stop offset="1" stop-color="#F7AA00"/>
</linearGradient>
<linearGradient id="paint39_linear_131_2345" x1="1.49889" y1="19.2752" x2="4.9237" y2="21.606" gradientUnits="userSpaceOnUse">
<stop stop-color="#F7AA00"/>
<stop offset="0.35" stop-color="#F9DB00"/>
<stop offset="0.73" stop-color="#ED9700"/>
<stop offset="1" stop-color="#F7AA00"/>
</linearGradient>
<linearGradient id="paint40_linear_131_2345" x1="1.43247" y1="19.1845" x2="5.03829" y2="21.6482" gradientUnits="userSpaceOnUse">
<stop stop-color="#F7AA00"/>
<stop offset="0.35" stop-color="#F9DB00"/>
<stop offset="0.73" stop-color="#ED9700"/>
<stop offset="1" stop-color="#F7AA00"/>
</linearGradient>
<clipPath id="clip0_131_2345">
<rect width="87" height="52" fill="white"/>
</clipPath>
</defs>
</svg>
