<svg width="58" height="58" viewBox="0 0 58 58" fill="none" xmlns="http://www.w3.org/2000/svg">
<path d="M3 37.2393V35.2393C3 32.4778 5.23858 30.2393 8 30.2393H12" stroke="#455A64" stroke-linecap="round"/>
<circle cx="11" cy="20.2393" r="5.5" stroke="#455A64"/>
<path d="M56 37.2393V35.2393C56 32.4778 53.7614 30.2393 51 30.2393H47" stroke="#455A64" stroke-linecap="round"/>
<circle cx="6" cy="6" r="5.5" transform="matrix(-1 0 0 1 54 14.2393)" stroke="#455A64"/>
<path d="M17.9111 37.1424V30.999C17.9111 28.2376 20.1497 25.999 22.9111 25.999H36.0551C38.8166 25.999 41.0551 28.2376 41.0551 30.999V37.1424" stroke="#00EE57" stroke-linecap="round"/>
<path d="M29.8596 49.4083L33.9785 52.1272C34.5097 52.4756 35.1635 51.9573 35.0082 51.32L33.8151 46.443C33.7828 46.3078 33.7879 46.1659 33.8299 46.0336C33.8718 45.9014 33.9488 45.7841 34.0521 45.6953L37.746 42.4921C38.2282 42.0758 37.983 41.2346 37.3537 41.1922L32.532 40.8693C32.4004 40.8613 32.2739 40.8137 32.168 40.7322C32.062 40.6507 31.9812 40.5389 31.9354 40.4105L30.1375 35.7034C30.0899 35.5674 30.0032 35.4499 29.8891 35.3668C29.7751 35.2838 29.6392 35.2393 29.5 35.2393C29.3608 35.2393 29.2249 35.2838 29.1109 35.3668C28.9968 35.4499 28.9101 35.5674 28.8625 35.7034L27.0646 40.4105C27.0188 40.5389 26.938 40.6507 26.832 40.7322C26.7261 40.8137 26.5996 40.8613 26.468 40.8693L21.6463 41.1922C21.017 41.2346 20.7718 42.0758 21.254 42.4921L24.9479 45.6953C25.0512 45.7841 25.1282 45.9014 25.1701 46.0336C25.2121 46.1659 25.2172 46.3078 25.1849 46.443L24.0817 50.9632C23.8937 51.7279 24.6782 52.3481 25.3075 51.9318L29.1404 49.4083C29.2479 49.3373 29.3726 49.2995 29.5 49.2995C29.6274 49.2995 29.7521 49.3373 29.8596 49.4083V49.4083Z" stroke="#00EE57" stroke-linecap="round" stroke-linejoin="round"/>
<circle cx="29.6271" cy="13.8576" r="8.35758" stroke="#00EE57"/>
</svg>
