<svg width="24" height="24" viewBox="0 0 24 24" fill="none" xmlns="http://www.w3.org/2000/svg">
<path d="M12 16.875C14.0711 16.875 15.75 15.1961 15.75 13.125C15.75 11.0539 14.0711 9.375 12 9.375C9.92893 9.375 8.25 11.0539 8.25 13.125C8.25 15.1961 9.92893 16.875 12 16.875Z" stroke="#00EE57" stroke-linecap="round" stroke-linejoin="round"/>
<path d="M18.375 10.875C19.2485 10.8735 20.1103 11.0762 20.8916 11.4669C21.6729 11.8575 22.3521 12.4253 22.875 13.125" stroke="white" stroke-linecap="round" stroke-linejoin="round"/>
<path d="M1.125 13.125C1.64794 12.4253 2.32714 11.8575 3.10843 11.4669C3.88972 11.0762 4.75149 10.8735 5.625 10.875" stroke="white" stroke-linecap="round" stroke-linejoin="round"/>
<path d="M6.59998 20.2496C7.09387 19.2381 7.86193 18.3856 8.81664 17.7894C9.77136 17.1931 10.8744 16.877 12 16.877C13.1256 16.877 14.2286 17.1931 15.1833 17.7894C16.138 18.3856 16.9061 19.2381 17.4 20.2496" stroke="#00EE57" stroke-linecap="round" stroke-linejoin="round"/>
<path d="M5.62512 10.875C5.05572 10.8756 4.49791 10.7141 4.01688 10.4094C3.53585 10.1048 3.15145 9.6695 2.9086 9.15449C2.66576 8.63947 2.57449 8.06598 2.64547 7.50102C2.71645 6.93607 2.94675 6.40298 3.30945 5.96404C3.67215 5.52511 4.15227 5.19845 4.69372 5.02225C5.23517 4.84605 5.81558 4.82758 6.36714 4.96899C6.9187 5.11041 7.41862 5.40587 7.8085 5.82085C8.19838 6.23583 8.4621 6.7532 8.56887 7.3125" stroke="white" stroke-linecap="round" stroke-linejoin="round"/>
<path d="M15.4313 7.3125C15.538 6.7532 15.8018 6.23583 16.1916 5.82085C16.5815 5.40587 17.0814 5.11041 17.633 4.96899C18.1846 4.82758 18.765 4.84605 19.3064 5.02225C19.8479 5.19845 20.328 5.52511 20.6907 5.96404C21.0534 6.40298 21.2837 6.93607 21.3547 7.50102C21.4256 8.06598 21.3344 8.63947 21.0915 9.15449C20.8487 9.6695 20.4643 10.1048 19.9833 10.4094C19.5022 10.7141 18.9444 10.8756 18.375 10.875" stroke="white" stroke-linecap="round" stroke-linejoin="round"/>
</svg>
