<svg width="100" height="100" viewBox="0 0 100 100" fill="none" xmlns="http://www.w3.org/2000/svg">
<path d="M50 70.3125C58.6294 70.3125 65.625 63.3169 65.625 54.6875C65.625 46.0581 58.6294 39.0625 50 39.0625C41.3706 39.0625 34.375 46.0581 34.375 54.6875C34.375 63.3169 41.3706 70.3125 50 70.3125Z" stroke="#FF0A32" stroke-width="2" stroke-linecap="round" stroke-linejoin="round"/>
<path d="M76.5625 45.3125C80.2021 45.3064 83.7928 46.1509 87.0482 47.7786C90.3036 49.4063 93.1336 51.7722 95.3125 54.6875" stroke="#FF0A32" stroke-width="2" stroke-linecap="round" stroke-linejoin="round"/>
<path d="M4.6875 54.6875C6.8664 51.7722 9.69641 49.4063 12.9518 47.7786C16.2072 46.1509 19.7979 45.3064 23.4375 45.3125" stroke="#FF0A32" stroke-width="2" stroke-linecap="round" stroke-linejoin="round"/>
<path d="M27.4999 84.3738C29.5578 80.1593 32.758 76.6075 36.736 74.123C40.714 71.6386 45.3098 70.3213 49.9999 70.3213C54.69 70.3213 59.2858 71.6386 63.2638 74.123C67.2417 76.6075 70.442 80.1593 72.4999 84.3738" stroke="#FF0A32" stroke-width="2" stroke-linecap="round" stroke-linejoin="round"/>
<path d="M23.438 45.3125C21.0655 45.3149 18.7413 44.6421 16.737 43.3726C14.7327 42.1032 13.131 40.2896 12.1192 38.1437C11.1073 35.9978 10.7271 33.6082 11.0228 31.2543C11.3186 28.9003 12.2781 26.6791 13.7894 24.8502C15.3006 23.0213 17.3011 21.6602 19.5572 20.9261C21.8132 20.1919 24.2316 20.1149 26.5298 20.7041C28.8279 21.2934 30.9109 22.5244 32.5354 24.2535C34.1599 25.9826 35.2588 28.1383 35.7036 30.4687" stroke="#FF0A32" stroke-width="2" stroke-linecap="round" stroke-linejoin="round"/>
<path d="M64.297 30.4687C64.7418 28.1383 65.8407 25.9826 67.4652 24.2535C69.0897 22.5244 71.1727 21.2934 73.4708 20.7041C75.769 20.1149 78.1874 20.1919 80.4434 20.9261C82.6995 21.6602 84.7 23.0213 86.2112 24.8502C87.7225 26.6791 88.682 28.9003 88.9778 31.2543C89.2735 33.6082 88.8933 35.9978 87.8814 38.1437C86.8696 40.2896 85.2679 42.1032 83.2636 43.3726C81.2593 44.6421 78.9351 45.3149 76.5626 45.3125" stroke="#FF0A32" stroke-width="2" stroke-linecap="round" stroke-linejoin="round"/>
</svg>
