<svg width="24" height="24" viewBox="0 0 24 24" fill="none" xmlns="http://www.w3.org/2000/svg">
<path d="M9 18.6963V19.4463C9 20.2419 9.31607 21.005 9.87868 21.5676C10.4413 22.1302 11.2044 22.4463 12 22.4463C12.7956 22.4463 13.5587 22.1302 14.1213 21.5676C14.6839 21.005 15 20.2419 15 19.4463V18.6963" stroke="#00EE57" stroke-width="1.5" stroke-linecap="round" stroke-linejoin="round"/>
<path d="M5.17236 10.4463C5.17111 9.55713 5.34578 8.67652 5.68632 7.85517C6.02686 7.03382 6.52653 6.28796 7.15655 5.66055C7.78658 5.03314 8.53451 4.53657 9.35727 4.19945C10.18 3.86233 11.0614 3.69132 11.9505 3.69627C15.663 3.7244 18.6349 6.80877 18.6349 10.5306V11.1963C18.6349 14.5525 19.338 16.5025 19.9567 17.5713C20.0224 17.6851 20.0571 17.8142 20.0572 17.9456C20.0573 18.077 20.0229 18.2062 19.9574 18.3201C19.8919 18.4341 19.7976 18.5288 19.6839 18.5948C19.5703 18.6608 19.4413 18.6958 19.3099 18.6963H4.49736C4.36593 18.6958 4.23693 18.6608 4.12328 18.5948C4.00964 18.5288 3.91533 18.4341 3.84982 18.3201C3.78431 18.2062 3.74988 18.077 3.75 17.9456C3.75012 17.8142 3.78477 17.6851 3.85048 17.5713C4.46923 16.5025 5.17236 14.5525 5.17236 11.1963V10.4463Z" stroke="#455A64" stroke-width="1.5" stroke-linecap="round" stroke-linejoin="round"/>
<path d="M12 1.5V3" stroke="#455A64" stroke-width="1.5" stroke-linecap="round"/>
</svg>
