<svg width="32" height="32" viewBox="0 0 32 32" fill="none" xmlns="http://www.w3.org/2000/svg">
<path d="M16.3951 8.91443V15.9544" stroke="#455A64" stroke-linecap="round" stroke-linejoin="round"/>
<path d="M22.4965 19.4742L16.3951 15.9542" stroke="#455A64" stroke-linecap="round" stroke-linejoin="round"/>
<path d="M8.15234 11.8032H2.28568V5.93652" stroke="#455A64" stroke-linecap="round" stroke-linejoin="round"/>
<path d="M7.27237 25.0769C9.07698 26.883 11.3767 28.1133 13.8806 28.6122C16.3846 29.111 18.9802 28.856 21.3392 27.8795C23.6982 26.9029 25.7146 25.2486 27.1332 23.1259C28.5519 21.0032 29.3091 18.5074 29.3091 15.9543C29.3091 13.4011 28.5519 10.9053 27.1332 8.78262C25.7146 6.65991 23.6982 5.00563 21.3392 4.02907C18.9802 3.0525 16.3846 2.79752 13.8806 3.29638C11.3767 3.79524 9.07698 5.02553 7.27237 6.83161L2.28571 11.8036" stroke="#455A64" stroke-linecap="round" stroke-linejoin="round"/>
</svg>
